<?xml version="1.0" standalone="no"?>
<!DOCTYPE svg PUBLIC "-//W3C//DTD SVG 1.1//EN" "http://www.w3.org/Graphics/SVG/1.1/DTD/svg11.dtd" >
<svg xmlns="http://www.w3.org/2000/svg">
<metadata></metadata>
<defs>
<font id="surfregular" horiz-adv-x="856" >
<font-face units-per-em="2048" ascent="1612" descent="-436" />
<missing-glyph horiz-adv-x="583" />
<glyph horiz-adv-x="0" />
<glyph horiz-adv-x="682" />
<glyph horiz-adv-x="0" />
<glyph horiz-adv-x="0" />
<glyph unicode="&#xd;" horiz-adv-x="583" />
<glyph unicode=" "  horiz-adv-x="583" />
<glyph unicode="&#x09;" horiz-adv-x="583" />
<glyph unicode="&#xa0;" horiz-adv-x="583" />
<glyph unicode="!" horiz-adv-x="421" d="M84 45v168q0 41 41 41h172q18 0 29.5 -10.5t11.5 -30.5v-168q0 -15 -12 -30t-29 -15h-172q-41 0 -41 45zM84 342v999q0 41 45 41h168q41 0 41 -41v-999q0 -18 -10.5 -29.5t-30.5 -11.5h-168q-15 0 -30 12t-15 29z" />
<glyph unicode="&#x22;" horiz-adv-x="542" d="M82 981v360q0 41 41 41h90q41 0 41 -41v-360q0 -41 -41 -41h-90q-41 0 -41 41zM287 981v360q0 41 41 41h90q41 0 41 -41v-360q0 -41 -41 -41h-90q-41 0 -41 41z" />
<glyph unicode="#" horiz-adv-x="970" d="M59 414v168q0 41 41 41h74v114h-74q-41 0 -41 45v168q0 41 41 41h74v350q0 18 10.5 29.5t30.5 11.5h168q15 0 30 -12t15 -29v-350h115v350q0 18 10.5 29.5t30.5 11.5h168q15 0 30 -12t15 -29v-350h73q18 0 29.5 -10.5t11.5 -30.5v-168q0 -15 -12 -30t-29 -15h-73v-114h73 q18 0 29.5 -10.5t11.5 -30.5v-168q0 -15 -12 -30t-29 -15h-73v-328q0 -41 -45 -41h-168q-41 0 -41 41v328h-115v-328q0 -41 -45 -41h-168q-41 0 -41 41v328h-74q-41 0 -41 45zM428 623h115v114h-115v-114z" />
<glyph unicode="$" horiz-adv-x="813" d="M47 338v65q0 21 14 32t29 11h168q43 0 43 -43v-65q0 -43 31 -74t74 -31t73.5 30.5t30.5 74.5q0 34 -47 88l-316 365q-50 58 -73 117t-23 136q0 116 62.5 207t167.5 129v78q0 18 10.5 29.5t30.5 11.5h167q15 0 30.5 -12t15.5 -29v-80q101 -39 163 -129t62 -205v-59 q0 -20 -13.5 -32.5t-31.5 -12.5h-166q-18 0 -30.5 11.5t-12.5 31.5v61q0 43 -29 74t-71 31t-71.5 -31t-29.5 -74q0 -47 33 -83l315 -367q65 -76 88 -128t23 -128q0 -108 -63.5 -202.5t-165.5 -135.5v-76q0 -41 -46 -41h-167q-41 0 -41 41v76q-105 39 -169.5 130.5 t-64.5 207.5z" />
<glyph unicode="%" horiz-adv-x="1251" d="M51 899v248q0 104 76 180t180 76t180 -76t76 -180v-248q0 -104 -76 -180t-180 -76t-180 76t-76 180zM217 27q0 -6 2 1l2 13l588 1300q18 41 59 41h115q25 0 39 -11t6 -30l-588 -1300q-11 -24 -20.5 -32.5t-28.5 -8.5h-135q-39 0 -39 27zM231 899q0 -31 22.5 -53.5 t53.5 -22.5t52.5 22.5t21.5 53.5v248q0 31 -21.5 53.5t-52.5 22.5t-53.5 -22.5t-22.5 -53.5v-248zM686 238v247q0 104 76 180t180 76t180 -76t76 -180v-247q0 -104 -76 -180t-180 -76t-180 76t-76 180zM866 238q0 -31 22.5 -53.5t53.5 -22.5t52.5 22.5t21.5 53.5v247 q0 31 -21.5 53.5t-52.5 22.5t-53.5 -22.5t-22.5 -53.5v-247z" />
<glyph unicode="&#x26;" horiz-adv-x="937" d="M49 338v123q0 135 84 231q-84 96 -84 232v100q0 149 105 253.5t254 104.5h104q18 0 29.5 -11.5t11.5 -31.5v-170q0 -18 -11.5 -29.5t-29.5 -11.5h-104q-43 0 -74 -30.5t-31 -73.5v-100q0 -43 31 -74t74 -31h104v80q0 18 11.5 29.5t31.5 11.5h170q41 0 41 -41v-80h80 q18 0 29.5 -11.5t11.5 -31.5v-170q0 -41 -41 -41h-80v-227q0 -149 -104.5 -253.5t-253.5 -104.5t-254 104.5t-105 253.5zM303 338q0 -43 31 -74t74 -31t73.5 31t30.5 74v227h-104q-43 0 -74 -30.5t-31 -73.5v-123z" />
<glyph unicode="'" horiz-adv-x="382" d="M84 981v360q0 41 41 41h131q41 0 41 -41v-360q0 -41 -41 -41h-131q-41 0 -41 41z" />
<glyph unicode="(" horiz-adv-x="561" d="M72 2v1022q0 149 104.5 253.5t253.5 104.5h16q41 0 41 -41v-165q0 -20 -12 -34t-29 -14h-16q-43 0 -73.5 -30.5t-30.5 -73.5v-1022q0 -43 30.5 -73.5t73.5 -30.5h16q17 0 29 -14t12 -34v-165q0 -41 -41 -41h-16q-149 0 -253.5 104.5t-104.5 253.5z" />
<glyph unicode=")" horiz-adv-x="561" d="M72 -150q0 20 12 34t29 14h16q43 0 73.5 30.5t30.5 73.5v1022q0 43 -30.5 73.5t-73.5 30.5h-16q-17 0 -29 14t-12 34v165q0 41 41 41h16q149 0 253.5 -104.5t104.5 -253.5v-1022q0 -149 -104.5 -253.5t-253.5 -104.5h-16q-41 0 -41 41v165z" />
<glyph unicode="*" horiz-adv-x="823" d="M53 432v168q0 41 41 41h96l-47 84q-6 9 -6 20q0 23 25 39l145 84q9 6 23 6q16 0 32 -22l50 -86l49 86q9 20 35 20l20 -4l146 -86q22 -13 22 -41q-2 -2 -2 -4q0 -1 -1 -5t-1 -7l-49 -84h98q18 0 29.5 -10.5t11.5 -30.5v-168q0 -15 -12 -30t-29 -15h-98l49 -84q6 -9 6 -22 q0 -24 -20 -35l-146 -84q-9 -6 -22 -6q-26 0 -37 20l-49 84l-50 -84q-11 -20 -34 -20q-13 0 -25 6l-145 86q-23 13 -23 33q0 14 8 22l47 84h-96q-41 0 -41 45z" />
<glyph unicode="+" horiz-adv-x="780" d="M31 432v168q0 41 41 41h190v190q0 41 45 41h168q41 0 41 -41v-190h191q18 0 29.5 -10.5t11.5 -30.5v-168q0 -15 -12 -30t-29 -15h-191v-190q0 -18 -10.5 -29.5t-30.5 -11.5h-168q-15 0 -30 12t-15 29v190h-190q-41 0 -41 45z" />
<glyph unicode="," horiz-adv-x="387" d="M63 -197q0 13 17.5 31t35 45t17.5 60v41q0 20 -20 20h-7q-34 3 -34 41v172q0 41 41 41h172q18 0 29.5 -10.5t11.5 -30.5v-213q0 -88 -40.5 -166t-111.5 -125q-2 -2 -12 -2q-20 0 -29 12l-55 54q-15 15 -15 30z" />
<glyph unicode="-" horiz-adv-x="880" d="M82 432v168q0 41 41 41h635q18 0 29.5 -10.5t11.5 -30.5v-168q0 -15 -12 -30t-29 -15h-635q-41 0 -41 45z" />
<glyph unicode="." horiz-adv-x="417" d="M82 45v168q0 41 41 41h172q18 0 29.5 -10.5t11.5 -30.5v-168q0 -15 -12 -30t-29 -15h-172q-41 0 -41 45z" />
<glyph unicode="/" horiz-adv-x="903" d="M14 27q0 -6 2 1l2 13l588 1300q18 41 60 41h176q20 0 33.5 -7.5t13.5 -20.5q0 -11 -2 -13l-588 -1300q-11 -24 -20.5 -32.5t-28.5 -8.5h-197q-39 0 -39 27z" />
<glyph unicode="0" horiz-adv-x="860" d="M72 338v706q0 149 104.5 254t253.5 105t253.5 -105t104.5 -254v-706q0 -149 -104.5 -253.5t-253.5 -104.5t-253.5 104.5t-104.5 253.5zM326 338q0 -43 30.5 -74t73.5 -31t74 31t31 74v706q0 43 -31 74t-74 31t-73.5 -31t-30.5 -74v-706z" />
<glyph unicode="1" horiz-adv-x="544" d="M55 1092v149q0 36 41 57l152 76q8 8 28 8h168q45 0 45 -41v-1300q0 -19 -12 -30t-31 -11h-170q-21 0 -30.5 11.5t-9.5 27.5v1077l-127 -63q-2 -2 -13 -2q-2 0 -4 -2q-17 0 -27 12.5t-10 30.5z" />
<glyph unicode="2" d="M70 45v174q0 8 10 25l446 641q6 9 6 35v124q0 43 -30.5 74t-73.5 31t-73.5 -31t-30.5 -74v-63q0 -18 -11.5 -29.5t-31.5 -11.5h-170q-41 0 -41 41v63q0 149 104.5 254t253.5 105t253.5 -105t104.5 -254v-124q0 -121 -77 -232l-310 -434h346q18 0 29.5 -10.5t11.5 -30.5 v-168q0 -15 -12 -30t-29 -15h-634q-41 0 -41 45z" />
<glyph unicode="3" horiz-adv-x="839" d="M61 338v47q0 18 11.5 29.5t31.5 11.5h170q41 0 41 -41v-47q0 -43 31 -74t74 -31t73.5 31t30.5 74v164q0 43 -30.5 73.5t-73.5 30.5h-21q-18 0 -29.5 11.5t-11.5 31.5v150q0 41 41 41h21q43 0 73.5 30.5t30.5 73.5v100q0 43 -30.5 74t-73.5 31t-74 -31t-31 -74v-63 q0 -18 -11.5 -29.5t-31.5 -11.5h-170q-41 0 -41 41v63q0 149 105 254t254 105t253.5 -105t104.5 -254v-100q0 -62 -21 -110.5t-63 -100.5q84 -104 84 -231v-164q0 -149 -104.5 -253.5t-253.5 -104.5t-254 104.5t-105 253.5z" />
<glyph unicode="4" horiz-adv-x="821" d="M41 233v168q0 13 6 31l402 909q18 41 47 41h161q15 0 30 -12t15 -29v-895h31q47 0 47 -45v-168q0 -18 -13 -29t-34 -11h-31v-152q0 -41 -45 -41h-168q-40 0 -40 41v152h-365q-18 0 -30.5 10.5t-12.5 29.5zM311 446h138v367z" />
<glyph unicode="5" horiz-adv-x="860" d="M72 338v68q0 18 11.5 29t31.5 11h170q21 0 31 -16t10.5 -39.5t3.5 -51t9.5 -51t29.5 -39.5t61 -16q43 0 74 31t31 74v244q0 40 -30.5 69.5t-72.5 34.5q-106 0 -106 -43q0 -18 -13.5 -30.5t-31.5 -12.5h-162q-20 0 -33.5 12t-13.5 31v692q0 19 13.5 33t33.5 14h608 q18 0 30.5 -14.5t12.5 -32.5v-164q0 -43 -43 -43h-401v-202q38 14 106 14q147 0 251.5 -105.5t104.5 -252.5v-244q0 -149 -104.5 -253.5t-253.5 -104.5t-253.5 104.5t-104.5 253.5z" />
<glyph unicode="6" horiz-adv-x="851" d="M68 338v706q0 149 104.5 254t253.5 105t253.5 -105t104.5 -254q0 -19 -10.5 -31t-28.5 -12h-170q-18 0 -27.5 15t-14.5 37t-13.5 44t-32 37t-61.5 15q-43 0 -73.5 -31t-30.5 -74v-120q66 16 104 16q149 0 253.5 -104.5t104.5 -253.5v-244q0 -149 -104.5 -253.5 t-253.5 -104.5t-253.5 104.5t-104.5 253.5zM322 338q0 -43 30.5 -74t73.5 -31t73.5 31t30.5 74v244q0 43 -30.5 73.5t-73.5 30.5q-41 0 -70 -27t-34 -69v-252z" />
<glyph unicode="7" horiz-adv-x="813" d="M47 1174v167q0 18 13 29.5t34 11.5h627q18 0 30.5 -11t12.5 -30v-167q0 -10 -6 -31l-363 -1096q-15 -47 -53 -47h-186q-20 0 -32.5 12t-12.5 31l4 18l360 1067h-381q-47 0 -47 46z" />
<glyph unicode="8" horiz-adv-x="851" d="M68 338v164q0 135 84 231q-84 96 -84 232v79q0 149 104.5 254t253.5 105t253.5 -105t104.5 -254v-79q0 -128 -84 -232q84 -104 84 -231v-164q0 -149 -104.5 -253.5t-253.5 -104.5t-253.5 104.5t-104.5 253.5zM322 338q0 -43 30.5 -74t73.5 -31t73.5 31t30.5 74v164 q0 43 -29 73.5t-75 30.5q-43 0 -73.5 -30.5t-30.5 -73.5v-164zM322 965q0 -43 30.5 -74t73.5 -31t73.5 31t30.5 74v79q0 43 -30.5 74t-73.5 31t-73.5 -31t-30.5 -74v-79z" />
<glyph unicode="9" horiz-adv-x="851" d="M68 338q0 19 10 31t28 12h170q18 0 29.5 -15t18.5 -37t16.5 -44t31 -37t54.5 -15q43 0 73.5 31t30.5 74v121q-70 -17 -104 -17q-149 0 -253.5 105t-104.5 254v243q0 149 104.5 254t253.5 105t253.5 -105t104.5 -254v-706q0 -149 -104.5 -253.5t-253.5 -104.5 t-253.5 104.5t-104.5 253.5zM322 801q0 -43 30.5 -74t73.5 -31q41 0 70 27.5t34 69.5v251q0 43 -30.5 74t-73.5 31t-73.5 -31t-30.5 -74v-243z" />
<glyph unicode=":" horiz-adv-x="374" d="M63 45v168q0 41 41 41h172q18 0 29.5 -10.5t11.5 -30.5v-168q0 -15 -12 -30t-29 -15h-172q-41 0 -41 45zM63 815v168q0 41 41 41h172q18 0 29.5 -10.5t11.5 -30.5v-168q0 -15 -12 -30t-29 -15h-172q-41 0 -41 45z" />
<glyph unicode=";" horiz-adv-x="387" d="M63 -197q0 13 17.5 31t35 45t17.5 60v41q0 20 -20 20h-7q-34 3 -34 41v172q0 41 41 41h172q18 0 29.5 -10.5t11.5 -30.5v-213q0 -88 -40.5 -166t-111.5 -125q-2 -2 -12 -2q-20 0 -29 12l-55 54q-15 15 -15 30zM78 815v168q0 41 41 41h172q18 0 29.5 -10.5t11.5 -30.5 v-168q0 -15 -12 -30t-29 -15h-172q-41 0 -41 45z" />
<glyph unicode="&#x3c;" horiz-adv-x="763" d="M35 512q0 15 14 29l488 487q10 10 28 10q16 0 31 -12l119 -119q12 -12 12 -28q0 -12 -10 -29l-338 -338l338 -336q10 -17 10 -29q0 -18 -14 -32l-121 -119q-12 -12 -27 -12q-16 0 -28 12l-488 489q-14 14 -14 27z" />
<glyph unicode="=" horiz-adv-x="882" d="M82 248v168q0 41 41 41h635q18 0 29.5 -10.5t11.5 -30.5v-168q0 -15 -12 -30t-29 -15h-635q-41 0 -41 45zM82 616v168q0 41 41 41h635q18 0 29.5 -10.5t11.5 -30.5v-168q0 -15 -12 -30t-29 -15h-635q-41 0 -41 45z" />
<glyph unicode="&#x3e;" horiz-adv-x="765" d="M35 147q0 17 12 29l338 336l-338 338q-10 17 -10 29q0 16 12 28l119 119q12 12 31 12q11 0 28 -10l488 -487q14 -14 14 -29q0 -13 -14 -27l-488 -489q-12 -12 -28 -12q-18 0 -27 12l-121 119q-16 16 -16 32z" />
<glyph unicode="?" horiz-adv-x="792" d="M37 981v63q0 149 104.5 254t253.5 105t254 -105t105 -254v-141q0 -94 -59.5 -176.5t-149.5 -136.5q-45 -26 -45 -86v-158q0 -20 -12.5 -32.5t-30.5 -12.5h-168q-19 0 -31 13.5t-12 31.5v158q0 199 211 315q43 22 43 84v141q0 43 -31 74t-74 31t-73.5 -31t-30.5 -74v-63 q0 -18 -11.5 -29.5t-31.5 -11.5h-170q-18 0 -29.5 11.5t-11.5 29.5zM246 45v168q0 41 41 41h172q18 0 29.5 -10.5t11.5 -30.5v-168q0 -15 -12 -30t-29 -15h-172q-41 0 -41 45z" />
<glyph unicode="@" horiz-adv-x="1136" d="M63 631v121q0 177 79.5 327t218 237t303.5 87q182 0 295.5 -108.5t113.5 -270.5v-283v-108v-299q0 -41 -45 -41h-168q-16 0 -18 2q-64 -23 -127 -23q-149 0 -254 105t-105 254v119q0 149 105 253.5t254 104.5q33 0 63 -6q-13 19 -40.5 31t-55.5 12q-68 0 -132.5 -28 t-115 -78t-81.5 -125t-31 -162v-121q0 -123 56.5 -215.5t144.5 -137.5t192 -45h358q-8 -67 -71.5 -126.5t-156 -93t-186.5 -33.5q-113 0 -221.5 51.5t-191 138t-133 208.5t-50.5 253zM610 631q0 -43 31 -74t74 -31q41 0 70 27.5t34 69.5v120v15q-5 42 -34 69t-70 27 q-43 0 -74 -30.5t-31 -73.5v-119z" />
<glyph unicode="A" horiz-adv-x="874" d="M43 35q0 1 0.5 1.5t1 2t0.5 4.5l260 1309q9 27 33 30h199q21 -6 30 -30l264 -1309q0 -43 -45 -43h-172q-11 0 -23 8t-16 21l-26 139h-227l-25 -139q-3 -26 -35 -29h-180q-15 0 -27 9.5t-12 25.5zM369 418h135l-68 362z" />
<glyph unicode="B" horiz-adv-x="866" d="M74 37v1300q0 18 12.5 31.5t34.5 13.5h311q149 0 254 -104.5t105 -253.5v-113q0 -125 -72 -215l-8 -8q44 -55 62 -101.5t18 -123.5v-105q0 -149 -105 -253.5t-254 -104.5h-311q-20 0 -33.5 10t-13.5 27zM328 254h104q43 0 74 30.5t31 73.5v103q0 43 -31 73.5t-74 30.5 h-104v-311zM328 819h104q43 0 74 31t31 74v100q0 43 -31 73.5t-74 30.5h-104v-309z" />
<glyph unicode="C" horiz-adv-x="845" d="M63 338v706q0 149 105 254t254 105t253.5 -105t104.5 -254v-61q0 -19 -10.5 -31t-28.5 -12h-170q-19 0 -32 12t-13 31v61q0 43 -30.5 74t-73.5 31t-74 -31t-31 -74v-706q0 -43 31 -74t74 -31t73.5 31t30.5 74v61q0 18 13.5 32.5t31.5 14.5h164q19 0 32 -11.5t13 -33.5 v-63q0 -149 -104.5 -253.5t-253.5 -104.5q-161 0 -260 102.5t-99 255.5z" />
<glyph unicode="D" horiz-adv-x="870" d="M76 37v1300q0 45 45 45h313q153 0 256 -98.5t103 -259.5v-666q0 -149 -105 -253.5t-254 -104.5h-313q-45 0 -45 37zM330 254h104q43 0 74 30.5t31 73.5v666q0 43 -31 73.5t-74 30.5h-104v-874z" />
<glyph unicode="E" horiz-adv-x="880" d="M82 39v1298q0 45 41 45h635q20 0 30.5 -13t10.5 -34v-164q0 -18 -12.5 -30.5t-30.5 -12.5h-420v-309h366q41 0 41 -43v-168q0 -43 -41 -43h-366v-311h420q43 0 43 -45v-170q0 -39 -41 -39h-635q-41 0 -41 39z" />
<glyph unicode="F" d="M70 39v1296q0 47 43 47h628q45 0 45 -47v-161q0 -20 -11.5 -33t-33.5 -13h-417v-309h364q43 0 43 -43v-168q0 -43 -43 -43h-364v-526q0 -39 -41 -39h-177q-36 0 -36 39z" />
<glyph unicode="G" horiz-adv-x="884" d="M84 338v706q0 149 104.5 254t253.5 105t254 -105t105 -254v-61q0 -18 -11.5 -30.5t-31.5 -12.5h-168q-18 0 -30.5 11.5t-12.5 31.5v61q0 43 -31 74t-74 31t-73.5 -31t-30.5 -74v-706q0 -43 30.5 -74t73.5 -31t74 31t31 74v186h-66q-39 0 -39 43v168q0 19 11.5 31t33.5 12 h269q45 0 45 -43v-397q0 -149 -105 -253.5t-254 -104.5t-253.5 104.5t-104.5 253.5z" />
<glyph unicode="H" horiz-adv-x="882" d="M82 41v1300q0 15 11.5 28t27.5 13h172q15 0 29 -12.5t14 -28.5v-522h209v522q0 17 12 29t31 12h164q18 0 32.5 -11.5t14.5 -29.5v-1300q0 -41 -47 -41h-164q-18 0 -30.5 11t-12.5 30v524h-209v-524q0 -18 -13 -29.5t-34 -11.5h-168q-39 0 -39 41z" />
<glyph unicode="I" horiz-adv-x="421" d="M84 41v1300q0 18 10.5 29.5t30.5 11.5h168q15 0 30 -12t15 -29v-1300q0 -41 -45 -41h-168q-41 0 -41 41z" />
<glyph unicode="J" horiz-adv-x="770" d="M57 143q0 19 13 29l114 117q15 12 31 12q14 0 33 -17t45.5 -34t60.5 -17q43 0 74 31t31 74v1008q0 36 37 36h176q41 0 41 -39v-1005q0 -149 -105 -253.5t-254 -104.5q-89 0 -167.5 39.5t-127.5 111.5q-2 2 -2 12z" />
<glyph unicode="K" horiz-adv-x="892" d="M74 41v1300q0 15 10.5 28t26.5 13h176q14 0 27.5 -12.5t13.5 -28.5v-403l192 426q9 18 35 18h199q14 0 24 -9t10 -25q-2 -2 -2 -5q0 -1 -1 -5t-1 -7l-272 -602l303 -670l4 -18q0 -18 -13 -29.5t-36 -11.5h-182q-26 0 -35 18l-180 402l-45 -101v-278q0 -18 -10.5 -29.5 t-30.5 -11.5h-176q-37 0 -37 41z" />
<glyph unicode="L" horiz-adv-x="864" d="M74 41v1302q0 18 11.5 29.5t31.5 11.5h170q41 0 41 -41v-1089h422q18 0 29.5 -11.5t11.5 -31.5v-170q0 -41 -41 -41h-635q-41 0 -41 41z" />
<glyph unicode="M" horiz-adv-x="1112" d="M82 41v1300q0 18 10.5 29.5t30.5 11.5h217q29 0 35 -28l180 -649l180 649q7 28 39 28h209q15 0 30 -12t15 -29v-1300q0 -41 -45 -41h-168q-41 0 -41 41v623l-108 -465q-12 -31 -31 -31h-158q-21 0 -33 31l-108 471v-629q0 -41 -45 -41h-168q-41 0 -41 41z" />
<glyph unicode="N" horiz-adv-x="882" d="M82 41v1300q0 18 10.5 29.5t30.5 11.5h168q11 0 24 -8t19 -20v-4l211 -605v596q0 18 10.5 29.5t30.5 11.5h168q15 0 30 -12t15 -29v-1300q0 -41 -45 -41h-168q-16 0 -25.5 7t-12 13t-9.5 25l-203 584v-588q0 -41 -45 -41h-168q-41 0 -41 41z" />
<glyph unicode="O" horiz-adv-x="860" d="M72 338v706q0 149 104.5 254t253.5 105t253.5 -105t104.5 -254v-706q0 -149 -104.5 -253.5t-253.5 -104.5t-253.5 104.5t-104.5 253.5zM326 338q0 -43 30.5 -74t73.5 -31t74 31t31 74v706q0 43 -31 74t-74 31t-73.5 -31t-30.5 -74v-706z" />
<glyph unicode="P" horiz-adv-x="866" d="M74 47v1296q0 17 12 28t29 11h317q153 0 256 -98.5t103 -257.5v-330q0 -148 -105 -253t-254 -105h-104v-291q0 -18 -13 -32.5t-32 -14.5h-170q-14 0 -26.5 14.5t-12.5 32.5zM328 592h104q43 0 74 30.5t31 73.5v328q0 43 -31 73.5t-74 30.5h-104v-536z" />
<glyph unicode="Q" horiz-adv-x="843" d="M63 338v706q0 149 105 254t254 105t253.5 -105t104.5 -254v-706q0 -124 -68.5 -211t-166.5 -125v-135q0 -47 -43 -47l-168 -2q-43 0 -43 47v139q-88 32 -158 122t-70 212zM317 338q0 -43 31 -74t74 -31t73.5 31t30.5 74v706q0 43 -30.5 74t-73.5 31t-74 -31t-31 -74v-706 z" />
<glyph unicode="R" horiz-adv-x="897" d="M72 47v1294q0 39 39 39l319 2h6q150 0 250 -97q102 -99 102 -261v-100q0 -199 -135 -275l170 -592q2 -2 2 -18q0 -39 -39 -39h-182q-5 0 -9 1t-7 3t-5 3.5t-4 5.5t-3 5.5t-2.5 6.5t-2.5 6l-157 534h-88v-518q0 -18 -12.5 -32.5t-30.5 -14.5h-166q-17 0 -31 15t-14 32z M326 819h104q43 0 74 31t31 74v100q0 43 -31 73.5t-74 30.5h-104v-309z" />
<glyph unicode="S" horiz-adv-x="831" d="M57 338v65q0 21 14 32t29 11h168q22 0 31 -22t12 -53t8.5 -62.5t29.5 -53.5t67 -22t73.5 30.5t30.5 74.5q0 34 -47 88l-315 365q-51 58 -74 117t-23 136q0 150 103 254.5t252 104.5t251.5 -104.5t102.5 -254.5v-59q0 -20 -13.5 -32.5t-31.5 -12.5h-166q-18 0 -30.5 11.5 t-12.5 31.5q0 54 -5.5 86t-28.5 56t-66 24q-42 0 -71.5 -31t-29.5 -74q0 -47 33 -83l316 -367q65 -75 87.5 -127.5t22.5 -128.5q0 -144 -104.5 -252.5t-253.5 -108.5t-254 106.5t-105 254.5z" />
<glyph unicode="T" horiz-adv-x="798" d="M41 1178v163q0 17 14 29t33 12h623q19 0 33 -11t14 -30v-163q0 -21 -12.5 -35.5t-34.5 -14.5h-185v-1081q0 -15 -13.5 -31t-29.5 -16h-166q-13 0 -29 15.5t-16 31.5v1081h-184q-20 0 -33.5 14t-13.5 36z" />
<glyph unicode="U" horiz-adv-x="870" d="M76 338v1003q0 18 11.5 29.5t31.5 11.5h168q18 0 30.5 -11t12.5 -30v-1003q0 -43 30.5 -74t73.5 -31t74 31t31 74v1003q0 41 45 41h170q39 0 39 -41v-1003q0 -149 -105 -253.5t-254 -104.5t-253.5 104.5t-104.5 253.5z" />
<glyph unicode="V" horiz-adv-x="870" d="M41 1348q0 16 12 25t27 9h180q29 0 35 -28l139 -752l139 752q5 28 39 28h172q20 0 32.5 -11t12.5 -25v-7l-264 -1308q-12 -31 -30 -31h-199q-21 0 -33 31l-260 1308q0 1 -1 4.5t-1 4.5z" />
<glyph unicode="W" horiz-adv-x="1337" d="M78 338v1003q0 41 41 41h170q43 0 43 -41v-1003q0 -43 30.5 -74t73.5 -31q42 0 73.5 31.5t31.5 73.5v1003q0 41 41 41h174q39 0 39 -41v-1003q0 -42 31.5 -73.5t72.5 -31.5q42 0 73.5 31.5t31.5 73.5v1003q0 20 11 30.5t29 10.5h170q17 0 30 -12t13 -29v-1003 q0 -149 -104.5 -253.5t-253.5 -104.5q-128 0 -231 83q-103 -83 -232 -83q-149 0 -253.5 104.5t-104.5 253.5z" />
<glyph unicode="X" horiz-adv-x="925" d="M70 39q0 8 249 698q-223 605 -223 606q-5 13 7 26t34 13h191q20 0 26 -20l107 -320l104 318q6 22 23 22h200q15 0 28 -9t9 -25q0 -1 -4 -12q-56 -143 -223 -599q256 -687 256 -698q1 -5 1 -9q0 -10 -7 -18q-10 -12 -25 -12h-205q-5 0 -9 3t-6 5.5t-5 8.5l-4 8l-133 421 l-137 -421q-9 -25 -27 -25h-201q-14 0 -22 13q-5 9 -5 17q0 5 1 9z" />
<glyph unicode="Y" horiz-adv-x="858" d="M39 1346q-2 5 -2 9q0 9 7 16q11 11 28 11h194q24 0 33 -20l131 -416l137 416q5 20 25 20h196q16 0 24 -13q7 -11 7 -22v-6q0 -1 -7 -20q-72 -193 -251 -686v-588q0 -47 -41 -47h-178q-17 0 -27 13t-10 34v588q-266 709 -266 711z" />
<glyph unicode="Z" horiz-adv-x="880" d="M82 47v168q0 13 6 25l422 888h-381q-47 0 -47 46v167q0 18 13 29.5t34 11.5h627q18 0 30.5 -11t12.5 -30v-167q0 -17 -6 -31l-412 -889h375q43 0 43 -43v-164q0 -18 -12.5 -32.5t-30.5 -14.5h-627q-18 0 -32.5 14.5t-14.5 32.5z" />
<glyph unicode="[" horiz-adv-x="565" d="M78 -315v1656q0 41 41 41h325q41 0 41 -41v-170q0 -20 -11.5 -31.5t-29.5 -11.5h-112v-1230h112q18 0 29.5 -11.5t11.5 -31.5v-170q0 -41 -41 -41h-325q-41 0 -41 41z" />
<glyph unicode="\" horiz-adv-x="905" d="M14 1354q0 28 49 28h177q41 0 59 -41l588 -1300l4 -16v2q0 -27 -39 -27h-197q-19 0 -28.5 8.5t-20.5 32.5l-588 1300q-2 2 -2 9q0 2 -2 4z" />
<glyph unicode="]" horiz-adv-x="565" d="M78 -145q0 20 11.5 31.5t29.5 11.5h112v1230h-112q-18 0 -29.5 11.5t-11.5 31.5v170q0 41 41 41h325q41 0 41 -41v-1656q0 -41 -41 -41h-325q-41 0 -41 41v170z" />
<glyph unicode="^" horiz-adv-x="843" d="M37 965q0 16 12 28l344 344q15 15 29 15q12 0 27 -15l346 -344q12 -12 12 -28q0 -15 -12 -27l-119 -121q-16 -16 -33 -16t-29 12l-192 195l-195 -195q-17 -10 -28 -10q-17 0 -29 12l-119 119q-14 11 -14 31z" />
<glyph unicode="_" horiz-adv-x="1103" d="M82 45v168q0 41 41 41h858q18 0 29.5 -10.5t11.5 -30.5v-168q0 -15 -12 -30t-29 -15h-858q-41 0 -41 45z" />
<glyph unicode="`" horiz-adv-x="413" d="M37 1389q0 18 26 18h132q43 0 61 -41l115 -238q6 -12 6 -20q0 -21 -33 -21h-131q-22 0 -33.5 9.5t-21.5 31.5l-115 238q-6 12 -6 23z" />
<glyph unicode="a" horiz-adv-x="843" d="M63 338q0 148 104.5 248t254.5 100h104q0 42 -31 73.5t-73 31.5q-34 0 -60.5 -17.5t-45.5 -35t-33 -17.5q-17 0 -31 14l-115 117q-21 21 -10 41q41 74 121.5 112.5t173.5 38.5q149 0 253.5 -104.5t104.5 -253.5v-348v-299q0 -39 -41 -39h-176q-12 0 -14 2 q-74 -22 -127 -22q-149 0 -254 104.5t-105 253.5zM317 338q0 -43 31 -74t74 -31t73.5 31t30.5 74v108h-104q-42 0 -73.5 -32.5t-31.5 -75.5z" />
<glyph unicode="b" horiz-adv-x="872" d="M78 41v1300q0 18 10.5 29.5t30.5 11.5h168q15 0 30 -12t15 -29v-313q66 16 104 16q149 0 254 -104.5t105 -253.5v-348q0 -149 -105 -253.5t-254 -104.5q-54 0 -131 22q-2 -2 -18 -2h-168q-41 0 -41 41zM332 338q0 -43 30.5 -74t73.5 -31t74 31t31 74v348q0 43 -31 74 t-74 31t-73.5 -31t-30.5 -74v-348z" />
<glyph unicode="c" horiz-adv-x="833" d="M57 338v348q0 149 105 253.5t254 104.5q145 0 251.5 -102.5t106.5 -226.5q0 -19 -10.5 -31t-28.5 -12h-170q-15 0 -24.5 9t-13 22t-10.5 28.5t-16 28.5t-31 22t-54 9q-43 0 -74 -31t-31 -74v-348q0 -43 31 -74t74 -31q38 0 61.5 13t32 31.5t13.5 36.5t14.5 31t27.5 13 h164q19 0 32 -11.5t13 -33.5q0 -132 -105.5 -232.5t-252.5 -100.5q-149 0 -254 104.5t-105 253.5z" />
<glyph unicode="d" horiz-adv-x="874" d="M78 338v348q0 149 104.5 253.5t253.5 104.5q39 0 105 -16v313q0 17 15 29t30 12h168q20 0 30.5 -11.5t10.5 -29.5v-1300q0 -41 -41 -41h-168q-17 0 -19 2q-77 -22 -131 -22q-149 0 -253.5 104.5t-104.5 253.5zM332 338q0 -43 30.5 -74t73.5 -31t74 31t31 74v348 q0 43 -31 74t-74 31t-73.5 -31t-30.5 -74v-348z" />
<glyph unicode="e" horiz-adv-x="843" d="M63 338v348q0 149 105 253.5t254 104.5t253.5 -104.5t104.5 -253.5v-194q0 -22 -11.5 -34t-29.5 -12h-422v-108q0 -43 31 -74t74 -31q39 0 62.5 13t31.5 31.5t13 36.5t14.5 31t27.5 13h164q19 0 32 -11.5t13 -33.5q0 -130 -105.5 -231.5t-252.5 -101.5q-149 0 -254 104.5 t-105 253.5zM317 672h209q0 125 -104 125q-46 0 -75 -30t-30 -95z" />
<glyph unicode="f" horiz-adv-x="655" d="M55 838v145q0 41 41 41h86v20q0 149 105 254t254 105h16q41 0 41 -41v-166q0 -20 -12 -33.5t-29 -13.5h-16q-43 0 -74 -31t-31 -74v-20h121q41 0 41 -41v-145q0 -45 -41 -45h-121v-752q0 -19 -12.5 -30t-30.5 -11h-168q-20 0 -31.5 11.5t-11.5 29.5v752h-86q-41 0 -41 45 z" />
<glyph unicode="g" d="M70 338v348q0 149 104.5 253.5t253.5 104.5q53 0 127 -22q3 0 7 1t7 1h176q41 0 41 -39v-1005q0 -149 -104.5 -254t-253.5 -105q-89 0 -167.5 40t-127.5 112q-9 22 10 41l115 116q13 13 31 13q14 0 33 -17t45.5 -34t60.5 -17q43 0 73.5 31t30.5 74v16q-66 -16 -104 -16 q-149 0 -253.5 104.5t-104.5 253.5zM324 338q0 -43 30.5 -74t73.5 -31t73.5 31t30.5 74v348q0 43 -30.5 74t-73.5 31t-73.5 -31t-30.5 -74v-348z" />
<glyph unicode="h" horiz-adv-x="870" d="M76 41v1300q0 18 10.5 29.5t30.5 11.5h168q15 0 30 -12t15 -29v-313q66 16 104 16q149 0 254 -104.5t105 -253.5v-647q0 -39 -43 -39h-170q-18 0 -29.5 10.5t-11.5 30.5v645q0 42 -31.5 73.5t-73.5 31.5q-41 0 -72.5 -31t-31.5 -72v-649q0 -39 -43 -39h-170q-41 0 -41 41 z" />
<glyph unicode="i" horiz-adv-x="421" d="M84 41v942q0 18 10.5 29.5t30.5 11.5h168q15 0 30 -12t15 -29v-942q0 -41 -45 -41h-168q-41 0 -41 41zM84 1174v167q0 41 41 41h172q18 0 29.5 -10.5t11.5 -30.5v-167q0 -15 -12 -30.5t-29 -15.5h-172q-41 0 -41 46z" />
<glyph unicode="j" horiz-adv-x="516" d="M49 -172q0 20 12 33.5t29 13.5h16q43 0 74 31t31 74v1003q0 19 12.5 30t30.5 11h168q20 0 31.5 -11.5t11.5 -29.5v-1003q0 -149 -105 -254t-254 -105h-16q-41 0 -41 41v166zM211 1174v167q0 41 41 41h172q18 0 29.5 -10.5t11.5 -30.5v-167q0 -15 -12 -30.5t-29 -15.5 h-172q-41 0 -41 46z" />
<glyph unicode="k" horiz-adv-x="854" d="M49 41v1300q0 15 10.5 28t26.5 13h176q14 0 27.5 -12.5t13.5 -28.5v-587l172 254q10 16 33 16h215q15 0 28 -9.5t13 -25.5q0 4 -2 -1q-1 -5 -2 -13l-287 -428l324 -488q6 -9 6 -20q0 -17 -13.5 -28t-33.5 -11h-203q-22 0 -33 16l-217 324v-299q0 -18 -10.5 -29.5 t-30.5 -11.5h-176q-37 0 -37 41z" />
<glyph unicode="l" horiz-adv-x="542" d="M63 338v1003q0 18 11.5 29.5t31.5 11.5h168q18 0 30.5 -11t12.5 -30v-1003q0 -43 31 -74t74 -31h16q17 0 29 -13.5t12 -33.5v-166q0 -40 -41 -40h-16q-149 0 -254 104.5t-105 253.5z" />
<glyph unicode="m" horiz-adv-x="1339" d="M80 41v942q0 18 10.5 29.5t30.5 11.5h168l18 -4q70 24 131 24q129 0 232 -83q103 83 231 83q149 0 254 -104.5t105 -253.5v-645q0 -17 -13 -29t-30 -12h-170q-18 0 -29.5 10.5t-11.5 30.5v645q0 42 -31.5 73.5t-73.5 31.5q-41 0 -72.5 -31.5t-31.5 -73.5v-645 q0 -41 -39 -41h-174q-41 0 -41 41v645q0 42 -31.5 73.5t-73.5 31.5q-43 0 -73.5 -31t-30.5 -74v-645q0 -41 -43 -41h-170q-41 0 -41 41z" />
<glyph unicode="n" horiz-adv-x="872" d="M78 41v942q0 18 10.5 29.5t30.5 11.5h168l18 -4q70 24 131 24q149 0 254 -104.5t105 -253.5v-645q0 -17 -13 -29t-30 -12h-170q-18 0 -29.5 10.5t-11.5 30.5v645q0 42 -31.5 73.5t-73.5 31.5q-41 0 -72.5 -31t-31.5 -72v-647q0 -41 -43 -41h-170q-41 0 -41 41z" />
<glyph unicode="o" horiz-adv-x="847" d="M66 338v348q0 149 104.5 253.5t253.5 104.5t253.5 -104.5t104.5 -253.5v-348q0 -149 -104.5 -253.5t-253.5 -104.5t-253.5 104.5t-104.5 253.5zM319 338q0 -43 31 -74t74 -31t73.5 31t30.5 74v348q0 43 -30.5 74t-73.5 31t-74 -31t-31 -74v-348z" />
<glyph unicode="p" horiz-adv-x="866" d="M74 -317v1300q0 41 41 41h168q16 0 18 -2q77 22 131 22q149 0 254 -104.5t105 -253.5v-348q0 -149 -105 -253.5t-254 -104.5q-38 0 -104 16v-313q0 -17 -15 -29t-30 -12h-168q-20 0 -30.5 11.5t-10.5 29.5zM328 338q0 -43 30.5 -74t73.5 -31t74 31t31 74v348q0 43 -31 74 t-74 31t-73.5 -31t-30.5 -74v-348z" />
<glyph unicode="q" horiz-adv-x="874" d="M78 338v348q0 149 104.5 253.5t253.5 104.5q54 0 131 -22q2 2 19 2h168q41 0 41 -41v-1300q0 -18 -10.5 -29.5t-30.5 -11.5h-168q-15 0 -30 12t-15 29v313q-66 -16 -105 -16q-149 0 -253.5 104.5t-104.5 253.5zM332 338q0 -43 30.5 -74t73.5 -31t74 31t31 74v348 q0 43 -31 74t-74 31t-73.5 -31t-30.5 -74v-348z" />
<glyph unicode="r" horiz-adv-x="583" d="M59 45v641q0 149 105 253.5t254 104.5h63q41 0 41 -40v-166q0 -20 -12 -33.5t-29 -13.5h-63q-43 0 -74 -31t-31 -74v-641q0 -20 -12.5 -32.5t-30.5 -12.5h-168q-19 0 -31 13.5t-12 31.5z" />
<glyph unicode="s" horiz-adv-x="839" d="M61 283v32q0 21 11.5 32t25.5 11h174q19 0 31 -13.5t12 -39.5q0 -34 30 -53t75 -19q43 0 73.5 22t30.5 54q0 41 -29.5 62.5t-74.5 21.5q-156 0 -257.5 95.5t-101.5 226.5q0 135 105 232t254 97q165 0 261.5 -91t96.5 -240q0 -17 -13.5 -29t-31.5 -12h-166q-24 0 -34 13 t-11.5 32t-6.5 37.5t-28 31.5t-67 13q-53 0 -79 -26.5t-26 -65.5q0 -72 107 -72q90 0 161 -30.5t112 -80.5t62 -107t21 -116q0 -139 -102.5 -231.5t-255.5 -92.5q-155 0 -257 81.5t-102 224.5z" />
<glyph unicode="t" horiz-adv-x="651" d="M53 838v145q0 41 41 41h86v317q0 18 11.5 29.5t31.5 11.5h168q18 0 30.5 -11t12.5 -30v-317h121q41 0 41 -41v-145q0 -45 -41 -45h-121v-476q0 -41 30 -62.5t75 -21.5h16q17 0 29 -13.5t12 -33.5v-166q0 -40 -41 -40h-16q-77 0 -140.5 18.5t-113.5 57.5t-77.5 105.5 t-27.5 155.5v476h-86q-41 0 -41 45z" />
<glyph unicode="u" horiz-adv-x="874" d="M78 338v645q0 18 11.5 29.5t31.5 11.5h168q18 0 30.5 -11t12.5 -30v-645q0 -43 30.5 -74t73.5 -31t74 31t31 74v645q0 41 45 41h170q39 0 39 -41v-942q0 -41 -45 -41h-168q-17 0 -19 2q-74 -22 -127 -22q-149 0 -253.5 104.5t-104.5 253.5z" />
<glyph unicode="v" horiz-adv-x="868" d="M45 979q-1 3 -1 7q0 10 8 22q12 16 36 16h182q29 0 35 -31l129 -512l129 514q6 29 37 29h184q18 0 30 -15q9 -12 10 -24q0 -3 -1 -6l-258 -948q-12 -31 -33 -31h-194q-23 0 -35 31z" />
<glyph unicode="w" horiz-adv-x="1333" d="M76 338v645q0 41 41 41h170q43 0 43 -41v-645q0 -43 30.5 -74t73.5 -31q42 0 73.5 31.5t31.5 73.5v645q0 41 41 41h174q39 0 39 -41v-645q0 -42 31.5 -73.5t72.5 -31.5q42 0 73 31.5t31 73.5v645q0 20 11.5 30.5t29.5 10.5h170q17 0 30 -12t13 -29v-645 q0 -149 -104.5 -253.5t-253.5 -104.5q-128 0 -231 83q-103 -83 -232 -83q-149 0 -253.5 104.5t-104.5 253.5z" />
<glyph unicode="x" horiz-adv-x="942" d="M80 22q-5 11 -6 20q0 10 6 19l250 486l-219 430q-6 15 5.5 31t33.5 16h206q18 0 27 -20l90 -193l88 190q10 23 27 23h213q23 0 34 -14t1 -31l-222 -432l248 -486q7 -10 7 -22q0 -8 -3 -17q-8 -22 -30 -22h-213q-12 0 -27 25l-123 260l-125 -260q-9 -25 -26 -25h-213 q-19 0 -29 22z" />
<glyph unicode="y" horiz-adv-x="862" d="M72 338v645q0 18 11.5 29.5t31.5 11.5h168q18 0 30.5 -11t12.5 -30v-645q0 -43 30.5 -74t73.5 -31q41 0 70.5 27.5t34.5 69.5v657q0 15 9 26t27 11h179q18 0 28 -11t10 -26v-1007q0 -149 -104.5 -254t-253.5 -105q-89 0 -167.5 40t-127.5 112q-9 19 10 41l115 116 q16 13 31 13q14 0 33 -17t45.5 -34t60.5 -17q43 0 74 31t31 74v16q-66 -16 -105 -16q-149 0 -253.5 104.5t-104.5 253.5z" />
<glyph unicode="z" horiz-adv-x="880" d="M80 47v168q0 16 6 25l385 530h-344q-47 0 -47 45v168q0 18 13 29.5t34 11.5h627q18 0 30.5 -11t12.5 -30v-168q0 -23 -6 -31l-381 -530h344q43 0 43 -43v-164q0 -18 -12.5 -32.5t-30.5 -14.5h-627q-18 0 -32.5 14.5t-14.5 32.5z" />
<glyph unicode="{" horiz-adv-x="645" d="M53 434v168q0 41 41 41h56q26 0 26 27v354q0 149 105 253.5t254 104.5h16q41 0 41 -41v-165q0 -20 -12 -34t-29 -14h-16q-43 0 -74 -30.5t-31 -73.5v-389q0 -68 -43 -117q43 -49 43 -119v-397q0 -43 31 -73.5t74 -30.5h16q17 0 29 -14t12 -34v-165q0 -41 -41 -41h-16 q-149 0 -254 104.5t-105 253.5v365q0 7 -7 14.5t-15 7.5h-60q-41 0 -41 45z" />
<glyph unicode="|" horiz-adv-x="421" d="M84 -315v1656q0 18 10.5 29.5t30.5 11.5h168q15 0 30 -12t15 -29v-1656q0 -41 -45 -41h-168q-41 0 -41 41z" />
<glyph unicode="}" horiz-adv-x="643" d="M51 -150q0 20 12 34t29 14h17q43 0 73.5 30.5t30.5 73.5v397q0 70 43 119q-43 49 -43 117v389q0 43 -30.5 73.5t-73.5 30.5h-17q-17 0 -29 14t-12 34v165q0 41 41 41h17q149 0 253.5 -104.5t104.5 -253.5v-354q0 -27 27 -27h55q41 0 41 -41v-168q0 -45 -41 -45h-60 q-7 0 -14.5 -7.5t-7.5 -14.5v-365q0 -149 -104.5 -253.5t-253.5 -104.5h-17q-41 0 -41 41v165z" />
<glyph unicode="~" horiz-adv-x="1126" d="M55 481q0 16 45 78q54 75 129 114.5t162 39.5q103 0 207 -66l76 -49q27 -18 61 -18q55 0 82 41l37 53q10 16 33 16q11 0 28 -10l140 -94q16 -13 16 -31q0 -14 -8 -27l-37 -51q-108 -150 -291 -153q-107 0 -207 65l-75 49q-29 19 -62 19q-55 0 -82 -41l-37 -54 q-9 -13 -26.5 -15t-34.5 9l-139 95q-17 10 -17 30z" />
<glyph unicode="&#xa1;" horiz-adv-x="413" d="M80 -317v999q0 18 10.5 29.5t30.5 11.5h168q15 0 30 -12t15 -29v-999q0 -41 -45 -41h-168q-41 0 -41 41zM80 811v168q0 15 12 30t29 15h172q41 0 41 -45v-168q0 -41 -41 -41h-172q-18 0 -29.5 10.5t-11.5 30.5z" />
<glyph unicode="&#xa2;" horiz-adv-x="798" d="M41 338v348q0 116 62 205.5t167 128.5v168q0 41 41 41h172q18 0 29.5 -10.5t11.5 -30.5v-166q105 -37 169.5 -128.5t64.5 -207.5q0 -19 -10.5 -31t-28.5 -12h-170q-18 0 -29.5 15t-18.5 37t-16.5 44t-31 37t-54.5 15q-43 0 -73.5 -31t-30.5 -74v-348q0 -43 30.5 -74 t73.5 -31q33 0 54.5 15.5t31 38t16.5 45t18.5 38t29.5 15.5h164q19 0 32 -11.5t13 -33.5v-2q0 -116 -64.5 -207.5t-169.5 -130.5v-158q0 -15 -12 -30t-29 -15h-172q-41 0 -41 45v160q-105 38 -167 129t-62 207z" />
<glyph unicode="&#xa3;" horiz-adv-x="804" d="M72 39v174v6v825q0 149 104.5 254t253.5 105q89 0 167.5 -40t127.5 -112q2 -2 2 -12q0 -17 -12 -29l-115 -116q-15 -15 -33 -15q-14 0 -33.5 17.5t-46 35t-57.5 17.5q-43 0 -73.5 -31t-30.5 -74v-403h202q18 0 29.5 -10.5t11.5 -30.5v-102q0 -15 -12 -30t-29 -15h-202 v-199h364q18 0 29.5 -10.5t11.5 -30.5v-168q0 -15 -12 -30t-29 -15h-577q-41 0 -41 39z" />
<glyph unicode="&#xa4;" horiz-adv-x="897" d="M59 737q0 18 15 33l119 119q14 14 26 14q17 0 31 -14l98 -98q62 16 98 16q35 0 97 -16l100 98q12 12 27 12q18 0 32 -14l119 -119q15 -15 15 -29q0 -13 -15 -28l-98 -101q16 -62 16 -96q0 -36 -16 -98l98 -99q15 -15 15 -28q0 -17 -15 -29l-119 -119q-12 -12 -32 -12 q-17 0 -27 10l-100 99q-66 -17 -97 -17q-32 0 -98 17l-98 -99q-14 -14 -29 -14q-17 0 -28 14l-119 119q-13 10 -13 33q0 15 11 26l98 99q-16 62 -16 98q0 34 16 96l-98 101q-13 13 -13 26zM266 514q0 -75 52.5 -127.5t127.5 -52.5t128 52.5t53 127.5t-53 127.5t-128 52.5 t-127.5 -52.5t-52.5 -127.5z" />
<glyph unicode="&#xa5;" horiz-adv-x="876" d="M47 1346q0 15 8.5 25.5t24.5 10.5h194q24 0 33 -20l131 -416l137 416q5 20 25 20h197q30 0 30 -41q0 -3 -1 -6t-1 -6l-215 -579h166q18 0 29.5 -10.5t11.5 -30.5v-103q0 -15 -12 -30t-29 -15h-207v-84h207q18 0 29.5 -10.5t11.5 -30.5v-102q0 -15 -12 -30t-29 -15h-207 v-242q0 -47 -41 -47h-178q-17 0 -27 13t-10 34v242h-209q-41 0 -41 45v102q0 41 41 41h209v84h-209q-41 0 -41 45v103q0 41 41 41h166l-219 577z" />
<glyph unicode="&#xa6;" horiz-adv-x="421" d="M84 -315v735q0 18 10.5 29.5t30.5 11.5h168q15 0 30 -12t15 -29v-735q0 -41 -45 -41h-168q-41 0 -41 41zM84 606v735q0 18 10.5 29.5t30.5 11.5h168q15 0 30 -12t15 -29v-735q0 -41 -45 -41h-168q-41 0 -41 41z" />
<glyph unicode="&#xa8;" horiz-adv-x="770" d="M82 1165v156q0 39 39 39h162q15 0 27 -10.5t12 -28.5v-156q0 -18 -11 -31.5t-28 -13.5h-162q-39 0 -39 45zM449 1165v156q0 39 40 39h160q39 0 39 -39v-156q0 -18 -10.5 -31.5t-28.5 -13.5h-160q-40 0 -40 45z" />
<glyph unicode="&#xa9;" horiz-adv-x="1251" d="M61 545v293q0 154 75.5 284t206 205.5t284.5 75.5q153 0 282.5 -75.5t205 -205.5t75.5 -284v-293q0 -154 -75.5 -284t-205 -205.5t-282.5 -75.5q-154 0 -284.5 75.5t-206 205.5t-75.5 284zM276 545q0 -145 103 -247.5t248 -102.5q143 0 245.5 103t102.5 247v293 q0 143 -103 246.5t-245 103.5q-144 0 -247.5 -103.5t-103.5 -246.5v-293zM324 545v293q0 128 88 215.5t215 87.5t215 -87.5t88 -215.5q0 -35 -33 -35h-145q-19 0 -31 19t-17.5 42.5t-25 42.5t-51.5 19q-37 0 -62.5 -25.5t-25.5 -62.5v-293q0 -37 25.5 -62.5t62.5 -25.5 q33 0 53 20t26 43.5t17 43.5t29 20h139q15 0 27 -10.5t12 -28.5q0 -127 -88 -215t-215 -88t-215 88t-88 215z" />
<glyph unicode="&#xaa;" horiz-adv-x="583" d="M57 995q0 148 104.5 248t254.5 100h104q0 42 -31 73.5t-73 31.5q-26 0 -49 -11t-36.5 -24t-28 -24t-26.5 -11q-15 0 -30 15l-115 116q-21 21 -10 41q41 75 121.5 113.5t173.5 38.5q149 0 253.5 -105t104.5 -254v-348v-299q0 -39 -41 -39h-176q-12 0 -14 2 q-74 -22 -127 -22q-149 0 -254 104.5t-105 253.5zM311 995q0 -43 31 -73.5t74 -30.5t73.5 30.5t30.5 73.5v109h-104q-42 0 -73.5 -33t-31.5 -76z" />
<glyph unicode="&#xab;" horiz-adv-x="1191" d="M51 512q0 14 15 29l487 487q10 10 29 10q15 0 30 -12l86 -88q13 -13 13 -29q0 -10 -11 -28l-366 -369l366 -367q11 -18 11 -28q0 -18 -15 -33l-88 -88q-12 -12 -26 -12q-17 0 -29 12l-487 489q-15 15 -15 27zM481 512q0 14 15 29l487 487q10 10 29 10q15 0 30 -12l86 -88 q13 -13 13 -29q0 -10 -11 -28l-366 -369l366 -367q11 -18 11 -28q0 -18 -15 -33l-88 -88q-12 -12 -26 -12q-17 0 -29 12l-487 489q-15 15 -15 27z" />
<glyph unicode="&#xac;" horiz-adv-x="1073" d="M66 594v102q0 41 40 41h859q41 0 41 -41v-448q0 -18 -10.5 -29.5t-30.5 -11.5h-103q-15 0 -30 12t-15 29v301h-711q-40 0 -40 45z" />
<glyph unicode="&#xad;" horiz-adv-x="880" d="M82 432v168q0 41 41 41h635q18 0 29.5 -10.5t11.5 -30.5v-168q0 -15 -12 -30t-29 -15h-635q-41 0 -41 45z" />
<glyph unicode="&#xae;" horiz-adv-x="1251" d="M61 545v293q0 154 75.5 284t206 205.5t284.5 75.5q153 0 282.5 -75.5t205 -205.5t75.5 -284v-293q0 -154 -75.5 -284t-205 -205.5t-282.5 -75.5q-154 0 -284.5 75.5t-206 205.5t-75.5 284zM276 545q0 -145 103 -247.5t248 -102.5q143 0 245.5 103t102.5 247v293 q0 143 -103 246.5t-245 103.5q-144 0 -247.5 -103.5t-103.5 -246.5v-293zM324 545v293q0 128 88 215.5t215 87.5t215 -87.5t88 -215.5q0 -35 -33 -35h-145q-19 0 -31 19t-17.5 42.5t-25 42.5t-51.5 19q-37 0 -62.5 -25.5t-25.5 -62.5v-525q0 -12 -9.5 -26.5t-21.5 -14.5 q-4 0 -6 2q-78 31 -128 107.5t-50 163.5z" />
<glyph unicode="&#xb0;" horiz-adv-x="505" d="M57 1303q0 82 56.5 139t138.5 57t139.5 -57t57.5 -139t-57.5 -138.5t-139.5 -56.5t-138.5 56.5t-56.5 138.5zM156 1303q0 -41 27.5 -69t68.5 -28t69.5 28t28.5 69t-28.5 69.5t-69.5 28.5t-68.5 -28.5t-27.5 -69.5z" />
<glyph unicode="&#xb1;" horiz-adv-x="827" d="M55 45v168q0 41 41 41h635q18 0 29.5 -10.5t11.5 -30.5v-168q0 -15 -12 -30t-29 -15h-635q-41 0 -41 45zM55 584v168q0 41 41 41h191v190q0 41 45 41h168q41 0 41 -41v-190h190q18 0 29.5 -10.5t11.5 -30.5v-168q0 -15 -12 -30t-29 -15h-190v-191q0 -18 -10.5 -29.5 t-30.5 -11.5h-168q-15 0 -30 12t-15 29v191h-191q-41 0 -41 45z" />
<glyph unicode="&#xb2;" horiz-adv-x="481" d="M78 688v174q0 8 10 25l447 641q6 9 6 35v125q0 43 -31 73.5t-74 30.5t-73.5 -30.5t-30.5 -73.5v-64q0 -18 -11.5 -29.5t-31.5 -11.5h-170q-41 0 -41 41v64q0 149 104.5 253.5t253.5 104.5t254 -104.5t105 -253.5v-125q0 -119 -78 -232l-309 -434h346q18 0 29.5 -10.5 t11.5 -30.5v-168q0 -15 -12 -30t-29 -15h-635q-41 0 -41 45z" />
<glyph unicode="&#xb3;" horiz-adv-x="481" d="M76 983v47q0 18 11.5 29.5t31.5 11.5h170q41 0 41 -41v-47q0 -43 30.5 -73.5t73.5 -30.5t74 30.5t31 73.5v164q0 43 -31 73.5t-74 30.5h-20q-18 0 -29.5 11.5t-11.5 31.5v150q0 41 41 41h20q43 0 74 30.5t31 73.5v101q0 43 -31 73.5t-74 30.5t-73.5 -30.5t-30.5 -73.5 v-64q0 -18 -11.5 -29.5t-31.5 -11.5h-170q-41 0 -41 41v64q0 149 104.5 253.5t253.5 104.5t254 -104.5t105 -253.5v-101q0 -62 -21 -110.5t-63 -100.5q84 -104 84 -231v-164q0 -149 -105 -253.5t-254 -104.5t-253.5 104.5t-104.5 253.5z" />
<glyph unicode="&#xb4;" horiz-adv-x="415" d="M37 1108q0 8 6 20l115 238q18 41 61 41h131q27 0 27 -18q0 -11 -6 -23l-115 -238q-10 -22 -21.5 -31.5t-33.5 -9.5h-131q-33 0 -33 21z" />
<glyph unicode="&#xb5;" horiz-adv-x="882" d="M82 -315v653v645q0 18 11.5 29.5t31.5 11.5h168q18 0 30.5 -11t12.5 -30v-653q5 -42 34 -69.5t70 -27.5q43 0 74 31t31 74v645q0 41 45 41h170q39 0 39 -41v-645q0 -149 -105 -253.5t-254 -104.5q-38 0 -104 16v-311q0 -41 -45 -41h-168q-41 0 -41 41z" />
<glyph unicode="&#xb6;" horiz-adv-x="0" />
<glyph unicode="&#xb7;" horiz-adv-x="387" d="M70 420v168q0 41 41 41h172q18 0 29.5 -10.5t11.5 -30.5v-168q0 -15 -12 -30t-29 -15h-172q-41 0 -41 45z" />
<glyph unicode="&#xb8;" horiz-adv-x="432" d="M49 -47q0 26 19 45h143q-21 -15 -21 -33q0 -16 20 -32t48 -33t56.5 -37t48.5 -51.5t20 -69.5q0 -68 -58.5 -118.5t-195.5 -92.5h-4q-25 0 -41 34t-16 58q0 14 10 21q160 41 160 98q0 22 -19.5 42t-47.5 36.5t-55.5 34t-47 43t-19.5 55.5z" />
<glyph unicode="&#xb9;" horiz-adv-x="296" d="M59 1735v149q0 37 41 58l152 75q8 8 29 8h168q45 0 45 -40v-1301q0 -19 -12 -30t-31 -11h-170q-21 0 -31 11.5t-10 27.5v1077l-127 -63q-2 -2 -13 -2q-2 0 -4 -2q-17 0 -27 12.5t-10 30.5z" />
<glyph unicode="&#xba;" horiz-adv-x="575" d="M59 995v348q0 149 105 254t254 105t253.5 -105t104.5 -254v-348q0 -149 -104.5 -253.5t-253.5 -104.5t-254 104.5t-105 253.5zM313 995q0 -43 31 -73.5t74 -30.5t73.5 30.5t30.5 73.5v348q0 43 -30.5 74t-73.5 31t-74 -31t-31 -74v-348z" />
<glyph unicode="&#xbb;" horiz-adv-x="1193" d="M51 117q0 16 12 28l367 367l-367 369q-10 17 -10 28q0 16 13 29l86 88q12 12 30 12q12 0 29 -10l487 -487q15 -15 15 -29q0 -12 -15 -27l-487 -489q-12 -12 -29 -12t-26 12l-88 88q-17 17 -17 33zM481 117q0 15 13 28l366 367l-366 369q-11 18 -11 28q0 16 13 29l86 88 q12 12 30 12q12 0 29 -10l487 -487q15 -15 15 -29q0 -12 -15 -27l-487 -489q-12 -12 -29 -12t-26 12l-88 88q-17 17 -17 33z" />
<glyph unicode="&#xbc;" horiz-adv-x="958" d="M72 27q0 5 592 1314q18 41 59 41h115q20 0 33.5 -7.5t13.5 -20.5q0 -11 -2 -13l-588 -1300q-11 -24 -20.5 -32.5t-28.5 -8.5h-135q-39 0 -39 27zM78 1227v80q0 17 22 30l80 41q12 4 17 4h90q22 0 22 -22v-694q0 -23 -22 -23h-90q-23 0 -23 21v575l-68 -33q-2 -2 -6 -2h-2 q-7 0 -13.5 7.5t-6.5 15.5zM485 125v90q0 12 2 16l215 486q9 22 25 22h88q7 0 15 -6t8 -16v-477h16q27 0 27 -25v-90q0 -23 -27 -23h-16v-79q0 -23 -23 -23h-90q-23 0 -23 23v79h-194q-8 0 -15.5 6.5t-7.5 16.5zM629 240h73v194z" />
<glyph unicode="&#xbd;" horiz-adv-x="1036" d="M66 27q0 -6 2 1l2 13l587 1300q18 41 60 41h114q20 0 34 -7.5t14 -20.5q0 -11 -2 -13l-588 -1300q-11 -24 -20.5 -32.5t-28.5 -8.5h-136q-38 0 -38 27zM72 1227v80q0 17 22 30l80 41q12 4 16 4h91q22 0 22 -22v-694q0 -23 -22 -23h-91q-22 0 -22 21v575l-68 -33 q-2 -2 -6 -2h-2q-7 0 -13.5 7.5t-6.5 15.5zM586 25v92q0 5 6 14l237 342q5 5 5 19v65q0 25 -16 41t-40 16q-25 0 -41 -16t-16 -41v-33q0 -9 -6 -15.5t-17 -6.5h-90q-19 0 -22 22v33q0 81 56 137t136 56t135.5 -56t55.5 -137v-65q0 -66 -41 -123l-166 -234h184q23 0 23 -20 v-90q0 -8 -6.5 -16.5t-16.5 -8.5h-338q-22 0 -22 25z" />
<glyph unicode="&#xbe;" horiz-adv-x="1044" d="M70 834v24q0 23 22 23h92q18 0 21 -23v-24q0 -24 16.5 -40t40.5 -16q23 0 39 16.5t16 39.5v88q0 23 -16 39t-39 16h-12q-8 0 -15.5 6t-7.5 16v80q0 20 23 23h12q23 0 39 16t16 39v53q0 23 -16 39.5t-39 16.5q-24 0 -40.5 -16t-16.5 -40v-32q0 -23 -23 -23h-90 q-19 0 -22 23v32q0 80 55.5 136.5t136.5 56.5q79 0 135 -56.5t56 -136.5v-53q0 -58 -45 -113q45 -55 45 -122v-88q0 -80 -55.5 -135.5t-135.5 -55.5q-81 0 -136.5 55.5t-55.5 135.5zM158 27q0 -6 2 1l2 13l588 1300q18 41 59 41h115q20 0 33.5 -7.5t13.5 -20.5q0 -11 -2 -13 l-588 -1300q-11 -24 -20.5 -32.5t-28.5 -8.5h-135q-39 0 -39 27zM580 125v90q0 12 2 16l215 486q9 22 24 22h88q7 0 15 -6t8 -16v-477h16q27 0 27 -25v-90q0 -23 -27 -23h-16v-79q0 -23 -23 -23h-90q-22 0 -22 23v79h-195q-8 0 -15 6.5t-7 16.5zM723 240h74v194z" />
<glyph unicode="&#xbf;" horiz-adv-x="780" d="M31 -18v141q0 94 59.5 176.5t149.5 136.5q45 26 45 86v158q0 20 12.5 32.5t30.5 12.5h168q19 0 31 -13.5t12 -31.5v-158q0 -199 -211 -315q-43 -22 -43 -84v-141q0 -43 30.5 -74t73.5 -31t74 31t31 74v63q0 18 11.5 29.5t31.5 11.5h170q18 0 29.5 -11.5t11.5 -29.5v-63 q0 -149 -105 -254t-254 -105t-253.5 105t-104.5 254zM285 813v168q0 15 12 30t29 15h172q41 0 41 -45v-168q0 -41 -41 -41h-172q-18 0 -29.5 10.5t-11.5 30.5z" />
<glyph unicode="&#xc0;" horiz-adv-x="882" d="M47 35q0 1 0.5 1.5t1 2t0.5 4.5l260 1309q9 27 33 30h199q21 -6 30 -30l265 -1309q0 -43 -45 -43h-173q-11 0 -22.5 8t-15.5 21l-27 139h-227l-25 -139q-3 -26 -35 -29h-180q-15 0 -27 9.5t-12 25.5zM201 1788q0 18 26 18h131q44 0 62 -41l115 -237q6 -12 6 -21 q0 -20 -33 -20h-131q-22 0 -33.5 9.5t-21.5 31.5l-115 237q-6 12 -6 23zM373 418h135l-68 362z" />
<glyph unicode="&#xc1;" horiz-adv-x="872" d="M43 35q0 1 0.5 1.5t1 2t0.5 4.5l260 1309q9 27 33 30h199q21 -6 30 -30l264 -1309q0 -43 -45 -43h-172q-11 0 -23 8t-16 21l-26 139h-227l-25 -139q-3 -26 -35 -29h-180q-15 0 -27 9.5t-12 25.5zM346 1507q0 9 6 21l115 237q18 41 61 41h131q27 0 27 -18q0 -11 -6 -23 l-115 -237q-10 -22 -21.5 -31.5t-33.5 -9.5h-131q-33 0 -33 20zM369 418h135l-68 362z" />
<glyph unicode="&#xc2;" horiz-adv-x="876" d="M43 35q0 1 0.5 1.5t1 2t0.5 4.5l260 1309q9 27 33 30h199q21 -6 30 -30l264 -1309q0 -43 -45 -43h-172q-11 0 -23 8t-16 21l-26 139h-227l-25 -139q-3 -26 -35 -29h-180q-15 0 -27 9.5t-12 25.5zM201 1561q0 6 6 12l217 219q6 6 12 6q9 0 15 -6l217 -219q6 -6 6 -14 q0 -7 -6 -13l-54 -53q-6 -6 -14 -6t-12 4l-152 154l-149 -154q-4 -4 -15 -4q-6 0 -12 6l-53 55q-6 6 -6 13zM369 418h135l-68 362z" />
<glyph unicode="&#xc3;" horiz-adv-x="876" d="M43 35q0 1 0.5 1.5t1 2t0.5 4.5l260 1309q9 27 33 30h199q21 -6 30 -30l264 -1309q0 -43 -45 -43h-172q-11 0 -23 8t-16 21l-26 139h-227l-25 -139q-3 -26 -35 -29h-180q-15 0 -27 9.5t-12 25.5zM184 1624l19 27q30 43 63 59t82 16q50 0 103 -32l38 -25q17 -10 29 -10 q27 0 43 22l19 27q4 7 13.5 7.5t16.5 -5.5l70 -47q13 -10 4 -29l-18 -24q-55 -76 -148 -76q-54 0 -102 31l-37 24q-17 10 -33 10q-25 0 -39 -20l-18 -27q-7 -10 -17 -10q-5 0 -14 6l-70 47q-14 12 -4 29zM369 418h135l-68 362z" />
<glyph unicode="&#xc4;" horiz-adv-x="872" d="M43 35q0 1 0.5 1.5t1 2t0.5 4.5l260 1309q9 27 33 30h199q21 -6 30 -30l264 -1309q0 -43 -45 -43h-172q-11 0 -23 8t-16 21l-26 139h-227l-25 -139q-3 -26 -35 -29h-180q-15 0 -27 9.5t-12 25.5zM129 1624v156q0 39 39 39h162q15 0 27 -10.5t12 -28.5v-156 q0 -18 -11 -31.5t-28 -13.5h-162q-39 0 -39 45zM369 418h135l-68 362zM496 1624v156q0 39 41 39h159q39 0 39 -39v-156q0 -18 -10.5 -31.5t-28.5 -13.5h-159q-41 0 -41 45z" />
<glyph unicode="&#xc5;" horiz-adv-x="876" d="M43 35q0 1 0.5 1.5t1 2t0.5 4.5l260 1309q9 27 33 30h199q21 -6 30 -30l264 -1309q0 -43 -45 -43h-172q-11 0 -23 8t-16 21l-26 139h-227l-25 -139q-3 -26 -35 -29h-180q-15 0 -27 9.5t-12 25.5zM242 1731q0 82 56 139t138 57t139.5 -57t57.5 -139t-57.5 -138.5 t-139.5 -56.5t-138 56.5t-56 138.5zM340 1731q0 -41 27.5 -69t68.5 -28t70 28t29 69t-29 69.5t-70 28.5t-68.5 -28.5t-27.5 -69.5zM369 418h135l-68 362z" />
<glyph unicode="&#xc6;" horiz-adv-x="1366" d="M57 35q1 1 35 87q177 443 492 1230q12 27 32 30h652q20 0 30.5 -13t10.5 -34v-164q0 -18 -12.5 -30.5t-30.5 -12.5h-420v-309h366q41 0 41 -43v-168q0 -43 -41 -43h-366v-311h420q43 0 43 -45v-170q0 -39 -41 -39h-639q-17 0 -28 10.5t-11 24.5l2 133h-227l-54 -139 q-12 -27 -39 -29h-176q-15 0 -27 9.5t-12 25.5zM457 418h135v362z" />
<glyph unicode="&#xc7;" horiz-adv-x="847" d="M66 338v706q0 149 104.5 254t253.5 105t253.5 -105t104.5 -254v-61q0 -19 -10.5 -31t-28.5 -12h-170q-19 0 -32 12t-13 31v61q0 43 -30.5 74t-73.5 31t-74 -31t-31 -74v-706q0 -43 31 -74t74 -31t73.5 31t30.5 74v61q0 18 13.5 32.5t31.5 14.5h164q19 0 32 -11.5 t13 -33.5v-63q0 -149 -104.5 -253.5t-253.5 -104.5q-161 0 -259.5 102.5t-98.5 255.5zM328 -47q0 27 18 45h143q-20 -14 -20 -33q0 -16 20 -32t48.5 -33t56.5 -37t48 -51.5t20 -69.5q0 -68 -58.5 -118.5t-195.5 -92.5h-5q-25 0 -41 34t-16 58q0 14 10 21q160 41 160 98 q0 27 -29.5 52.5t-64.5 43t-64.5 48t-29.5 67.5z" />
<glyph unicode="&#xc8;" d="M74 39v1298q0 45 41 45h635q20 0 30.5 -13t10.5 -34v-164q0 -18 -12.5 -30.5t-30.5 -12.5h-420v-309h366q41 0 41 -43v-168q0 -43 -41 -43h-366v-311h420q43 0 43 -45v-170q0 -39 -41 -39h-635q-41 0 -41 39zM195 1788q0 18 26 18h131q44 0 62 -41l114 -237q7 -14 7 -21 q0 -20 -33 -20h-131q-22 0 -34 9.5t-22 31.5l-114 237q-6 12 -6 23z" />
<glyph unicode="&#xc9;" d="M74 39v1298q0 45 41 45h635q20 0 30.5 -13t10.5 -34v-164q0 -18 -12.5 -30.5t-30.5 -12.5h-420v-309h366q41 0 41 -43v-168q0 -43 -41 -43h-366v-311h420q43 0 43 -45v-170q0 -39 -41 -39h-635q-41 0 -41 39zM326 1507q0 9 6 21l114 237q18 41 62 41h131q27 0 27 -18 q0 -9 -7 -23l-114 -237q-10 -22 -22 -31.5t-34 -9.5h-131q-32 0 -32 20z" />
<glyph unicode="&#xca;" horiz-adv-x="866" d="M78 39v1298q0 45 41 45h635q20 0 30.5 -13t10.5 -34v-164q0 -18 -12.5 -30.5t-30.5 -12.5h-420v-309h366q41 0 41 -43v-168q0 -43 -41 -43h-366v-311h420q43 0 43 -45v-170q0 -39 -41 -39h-635q-41 0 -41 39zM199 1561q0 6 6 12l217 219q6 6 12 6q9 0 15 -6l217 -219 q6 -6 6 -14q0 -7 -6 -13l-54 -53q-6 -6 -14 -6t-12 4l-152 154l-149 -154q-4 -4 -15 -4q-6 0 -12 6l-53 55q-6 6 -6 13z" />
<glyph unicode="&#xcb;" horiz-adv-x="862" d="M76 39v1298q0 45 41 45h635q20 0 30.5 -13t10.5 -34v-164q0 -18 -12.5 -30.5t-30.5 -12.5h-420v-309h366q41 0 41 -43v-168q0 -43 -41 -43h-366v-311h420q43 0 43 -45v-170q0 -39 -41 -39h-635q-41 0 -41 39zM133 1622v156q0 39 39 39h162q15 0 27 -10.5t12 -28.5v-156 q0 -18 -11 -31.5t-28 -13.5h-162q-39 0 -39 45zM500 1622v156q0 39 41 39h159q39 0 39 -39v-156q0 -18 -10.5 -31.5t-28.5 -13.5h-159q-41 0 -41 45z" />
<glyph unicode="&#xcc;" horiz-adv-x="415" d="M-31 1788q0 18 27 18h131q43 0 61 -41l115 -237q6 -12 6 -21q0 -20 -33 -20h-131q-22 0 -33.5 9.5t-21.5 31.5l-115 237q-6 12 -6 23zM84 41v1300q0 18 10.5 29.5t30.5 11.5h168q15 0 30 -12t15 -29v-1300q0 -41 -45 -41h-168q-41 0 -41 41z" />
<glyph unicode="&#xcd;" horiz-adv-x="409" d="M76 41v1300q0 18 10.5 29.5t30.5 11.5h168q15 0 30 -12t15 -29v-1300q0 -41 -45 -41h-168q-41 0 -41 41zM113 1507q0 9 6 21l114 237q18 41 62 41h131q27 0 27 -18q0 -9 -7 -23l-114 -237q-10 -22 -22 -31.5t-34 -9.5h-131q-32 0 -32 20z" />
<glyph unicode="&#xce;" horiz-adv-x="411" d="M-27 1561q0 5 7 12l217 219q6 6 12 6q8 0 14 -6l217 -219q6 -6 6 -14q0 -7 -6 -13l-53 -53q-6 -6 -14 -6q-9 0 -13 4l-151 154l-150 -154q-4 -4 -14 -4q-6 0 -12 6l-53 55q-7 7 -7 13zM82 41v1300q0 18 10.5 29.5t30.5 11.5h168q15 0 30 -12t15 -29v-1300q0 -41 -45 -41 h-168q-41 0 -41 41z" />
<glyph unicode="&#xcf;" horiz-adv-x="411" d="M-92 1622v156q0 39 39 39h162q15 0 26.5 -10.5t11.5 -28.5v-156q0 -18 -10.5 -31.5t-27.5 -13.5h-162q-39 0 -39 45zM84 41v1300q0 18 10.5 29.5t30.5 11.5h168q15 0 30 -12t15 -29v-1300q0 -41 -45 -41h-168q-41 0 -41 41zM274 1622v156q0 39 41 39h160q39 0 39 -39 v-156q0 -18 -10.5 -31.5t-28.5 -13.5h-160q-41 0 -41 45z" />
<glyph unicode="&#xd0;" horiz-adv-x="962" d="M61 610v168q0 41 41 41h80v518q0 45 45 45h314q153 0 255.5 -98.5t102.5 -259.5v-666q0 -149 -104.5 -253.5t-253.5 -104.5h-314q-45 0 -45 37v528h-80q-41 0 -41 45zM436 254h105q43 0 73.5 30.5t30.5 73.5v666q0 43 -30.5 73.5t-73.5 30.5h-105v-309h80 q18 0 29.5 -10.5t11.5 -30.5v-168q0 -15 -12 -30t-29 -15h-80v-311z" />
<glyph unicode="&#xd1;" d="M74 41v1300q0 18 10.5 29.5t30.5 11.5h168q11 0 24 -8t19 -20v-4l211 -605v596q0 18 10.5 29.5t30.5 11.5h167q15 0 30.5 -12t15.5 -29v-1300q0 -41 -46 -41h-167q-16 0 -25.5 7t-12.5 13.5t-10 24.5l-202 584v-588q0 -41 -45 -41h-168q-41 0 -41 41zM166 1671l18 27 q30 43 63.5 59.5t82.5 16.5q48 0 102 -33l39 -25q17 -10 29 -10q27 0 43 23l18 26q4 7 14 7.5t17 -5.5l70 -47q13 -10 4 -29l-19 -24q-55 -76 -147 -76q-55 0 -103 31l-37 24q-18 11 -32 11q-24 0 -39 -21l-19 -27q-7 -10 -16 -10q-5 0 -14 6l-70 47q-14 12 -4 29z" />
<glyph unicode="&#xd2;" horiz-adv-x="841" d="M66 338v706q0 149 104.5 254t253.5 105t253.5 -105t104.5 -254v-706q0 -149 -104.5 -253.5t-253.5 -104.5t-253.5 104.5t-104.5 253.5zM184 1788q0 18 27 18h131q43 0 61 -41l115 -237q6 -12 6 -21q0 -20 -32 -20h-132q-22 0 -33.5 9.5t-21.5 31.5l-115 237q-6 12 -6 23z M319 338q0 -43 31 -74t74 -31t73.5 31t30.5 74v706q0 43 -30.5 74t-73.5 31t-74 -31t-31 -74v-706z" />
<glyph unicode="&#xd3;" horiz-adv-x="866" d="M74 338v706q0 149 104.5 254t253.5 105t254 -105t105 -254v-706q0 -149 -105 -253.5t-254 -104.5t-253.5 104.5t-104.5 253.5zM328 338q0 -43 30.5 -74t73.5 -31t74 31t31 74v706q0 43 -31 74t-74 31t-73.5 -31t-30.5 -74v-706zM336 1507q0 9 6 21l115 237q18 41 61 41 h131q27 0 27 -18q0 -11 -6 -23l-115 -237q-10 -22 -21.5 -31.5t-33.5 -9.5h-131q-33 0 -33 20z" />
<glyph unicode="&#xd4;" d="M72 338v706q0 149 104.5 254t253.5 105t253.5 -105t104.5 -254v-706q0 -149 -104.5 -253.5t-253.5 -104.5t-253.5 104.5t-104.5 253.5zM197 1561q0 6 6 12l217 219q6 6 12 6q8 0 14 -6l218 -219q6 -6 6 -14q0 -7 -6 -13l-54 -53q-6 -6 -14 -6t-12 4l-152 154l-149 -154 q-4 -4 -15 -4q-6 0 -12 6l-53 55q-6 6 -6 13zM326 338q0 -43 30.5 -74t73.5 -31t74 31t31 74v706q0 43 -31 74t-74 31t-73.5 -31t-30.5 -74v-706z" />
<glyph unicode="&#xd5;" horiz-adv-x="851" d="M72 338v706q0 149 104.5 254t253.5 105t253.5 -105t104.5 -254v-706q0 -149 -104.5 -253.5t-253.5 -104.5t-253.5 104.5t-104.5 253.5zM176 1626l19 27q30 43 63 59.5t82 16.5q48 0 102 -33l39 -25q17 -10 29 -10q27 0 43 22l18 27q4 7 14 7.5t17 -5.5l70 -47 q13 -10 4 -29l-19 -24q-55 -76 -147 -76q-54 0 -102 31l-37 24q-18 11 -33 11q-24 0 -39 -21l-18 -27q-7 -10 -17 -10q-5 0 -14 6l-70 47q-14 12 -4 29zM326 338q0 -43 30.5 -74t73.5 -31t74 31t31 74v706q0 43 -31 74t-74 31t-73.5 -31t-30.5 -74v-706z" />
<glyph unicode="&#xd6;" horiz-adv-x="862" d="M72 338v706q0 149 104.5 254t253.5 105t253.5 -105t104.5 -254v-706q0 -149 -104.5 -253.5t-253.5 -104.5t-253.5 104.5t-104.5 253.5zM123 1622v156q0 39 39 39h162q15 0 26.5 -10.5t11.5 -28.5v-156q0 -18 -10.5 -31.5t-27.5 -13.5h-162q-39 0 -39 45zM326 338 q0 -43 30.5 -74t73.5 -31t74 31t31 74v706q0 43 -31 74t-74 31t-73.5 -31t-30.5 -74v-706zM489 1622v156q0 39 41 39h160q39 0 39 -39v-156q0 -18 -10.5 -31.5t-28.5 -13.5h-160q-41 0 -41 45z" />
<glyph unicode="&#xd7;" horiz-adv-x="765" d="M55 676q0 18 15 33l118 118q15 15 27 15q16 0 31 -15l135 -133l135 133q13 13 27 13q17 0 32 -15l119 -118q15 -15 15 -29t-15 -29l-133 -135l133 -135q15 -15 15 -29q0 -16 -15 -28l-119 -119q-13 -13 -32 -13q-16 0 -27 11l-135 133l-135 -133q-15 -15 -29 -15 q-17 0 -29 15l-118 118q-13 10 -13 33q0 16 11 27l133 135l-133 135q-13 13 -13 27z" />
<glyph unicode="&#xd8;" d="M-4 27q0 -6 2 1l2 13l588 1300q18 41 59 41h176q20 0 33.5 -7.5t13.5 -20.5q0 -11 -2 -13l-587 -1300q-11 -24 -20.5 -32.5t-29.5 -8.5h-196q-39 0 -39 27zM96 338v706q0 149 105 254t254 105t253.5 -105t104.5 -254v-706q0 -149 -104.5 -253.5t-253.5 -104.5t-254 104.5 t-105 253.5zM350 338q0 -43 31 -74t74 -31t73.5 31t30.5 74v706q0 43 -30.5 74t-73.5 31t-74 -31t-31 -74v-706z" />
<glyph unicode="&#xd9;" horiz-adv-x="862" d="M76 338v1003q0 18 11.5 29.5t31.5 11.5h168q18 0 30.5 -11t12.5 -30v-1003q0 -43 30.5 -74t73.5 -31t74 31t31 74v1003q0 41 45 41h170q39 0 39 -41v-1003q0 -149 -105 -253.5t-254 -104.5t-253.5 104.5t-104.5 253.5zM180 1788q0 18 27 18h131q43 0 61 -41l115 -237 q6 -12 6 -21q0 -20 -33 -20h-131q-22 0 -33.5 9.5t-21.5 31.5l-115 237q-6 12 -6 23z" />
<glyph unicode="&#xda;" horiz-adv-x="866" d="M76 338v1003q0 18 11.5 29.5t31.5 11.5h168q18 0 30.5 -11t12.5 -30v-1003q0 -43 30.5 -74t73.5 -31t74 31t31 74v1003q0 41 45 41h170q39 0 39 -41v-1003q0 -149 -105 -253.5t-254 -104.5t-253.5 104.5t-104.5 253.5zM338 1507q0 9 6 21l115 237q18 41 61 41h131 q27 0 27 -18q0 -11 -6 -23l-115 -237q-10 -22 -21.5 -31.5t-33.5 -9.5h-131q-33 0 -33 20z" />
<glyph unicode="&#xdb;" horiz-adv-x="866" d="M76 338v1003q0 18 11.5 29.5t31.5 11.5h168q18 0 30.5 -11t12.5 -30v-1003q0 -43 30.5 -74t73.5 -31t74 31t31 74v1003q0 41 45 41h170q39 0 39 -41v-1003q0 -149 -105 -253.5t-254 -104.5t-253.5 104.5t-104.5 253.5zM197 1561q0 6 6 12l217 219q6 6 12 6q8 0 14 -6 l218 -219q6 -6 6 -14q0 -7 -6 -13l-54 -53q-6 -6 -14 -6t-12 4l-152 154l-149 -154q-4 -4 -15 -4q-6 0 -12 6l-53 55q-6 6 -6 13z" />
<glyph unicode="&#xdc;" horiz-adv-x="872" d="M78 338v1003q0 18 11.5 29.5t31.5 11.5h168q18 0 30.5 -11t12.5 -30v-1003q0 -43 30.5 -74t73.5 -31t74 31t31 74v1003q0 41 45 41h170q39 0 39 -41v-1003q0 -149 -105 -253.5t-254 -104.5t-253.5 104.5t-104.5 253.5zM137 1624v156q0 39 39 39h162q15 0 27 -10.5 t12 -28.5v-156q0 -18 -11 -31.5t-28 -13.5h-162q-39 0 -39 45zM504 1624v156q0 39 41 39h160q38 0 38 -39v-156q0 -18 -10 -31.5t-28 -13.5h-160q-41 0 -41 45z" />
<glyph unicode="&#xdd;" horiz-adv-x="890" d="M55 1346q-5 14 5.5 25t27.5 11h195q23 0 32 -20l131 -416l138 416q5 20 24 20h197q16 0 24.5 -13t6.5 -28q0 -1 -7 -20q-72 -193 -251 -686v-588q0 -47 -41 -47h-179q-17 0 -26.5 13t-9.5 34v588q-133 355 -233 619q-34 89 -34 92zM338 1507q0 9 6 21l115 237 q18 41 61 41h131q27 0 27 -18q0 -11 -6 -23l-115 -237q-10 -22 -21.5 -31.5t-33.5 -9.5h-131q-33 0 -33 20z" />
<glyph unicode="&#xdf;" horiz-adv-x="1032" d="M74 37v1300q0 18 12.5 31.5t34.5 13.5h352q149 0 253.5 -104.5t104.5 -253.5v-51q0 -65 -23.5 -109.5t-86.5 -83.5q209 -67 209 -256v-166q0 -148 -102.5 -253t-249.5 -105h-7h-98q-41 0 -41 41v172q0 18 10.5 29.5t30.5 11.5h98h4q42 5 71.5 34.5t29.5 69.5v164 q0 109 -203 109q-41 0 -41 41v168q0 18 10.5 29.5t30.5 11.5q43 0 74 30.5t31 73.5v39q0 43 -31 73.5t-74 30.5h-145v-1087q0 -41 -45 -41h-162q-20 0 -33.5 10t-13.5 27z" />
<glyph unicode="&#xe0;" horiz-adv-x="831" d="M61 338q0 148 104.5 248t254.5 100h104q0 42 -31 73.5t-73 31.5q-34 0 -60.5 -17.5t-45.5 -35t-33 -17.5q-17 0 -31 14l-115 117q-21 21 -10 41q41 74 121.5 112.5t173.5 38.5q149 0 253.5 -104.5t104.5 -253.5v-348v-299q0 -39 -41 -39h-176q-12 0 -14 2 q-74 -22 -127 -22q-149 0 -254 104.5t-105 253.5zM195 1403q0 18 26 18h131q44 0 62 -41l114 -237q7 -14 7 -21q0 -20 -33 -20h-131q-22 0 -34 9.5t-22 31.5l-114 237q-6 12 -6 23zM315 338q0 -43 31 -74t74 -31t73.5 31t30.5 74v108h-104q-42 0 -73.5 -32.5t-31.5 -75.5z " />
<glyph unicode="&#xe1;" horiz-adv-x="841" d="M63 338q0 148 104.5 248t254.5 100h104q0 42 -31 73.5t-73 31.5q-34 0 -60.5 -17.5t-45.5 -35t-33 -17.5q-17 0 -31 14l-115 117q-21 21 -10 41q41 74 121.5 112.5t173.5 38.5q149 0 253.5 -104.5t104.5 -253.5v-348v-299q0 -39 -41 -39h-176q-12 0 -14 2 q-74 -22 -127 -22q-149 0 -254 104.5t-105 253.5zM317 338q0 -43 31 -74t74 -31t73.5 31t30.5 74v108h-104q-42 0 -73.5 -32.5t-31.5 -75.5zM328 1122q0 9 6 21l115 237q18 41 61 41h131q27 0 27 -18q0 -11 -6 -23l-115 -237q-10 -22 -21.5 -31.5t-33.5 -9.5h-132 q-32 0 -32 20z" />
<glyph unicode="&#xe2;" horiz-adv-x="837" d="M63 338q0 148 104.5 248t254.5 100h104q0 42 -31 73.5t-73 31.5q-34 0 -60.5 -17.5t-45.5 -35t-33 -17.5q-17 0 -31 14l-115 117q-21 21 -10 41q41 74 121.5 112.5t173.5 38.5q149 0 253.5 -104.5t104.5 -253.5v-348v-299q0 -39 -41 -39h-176q-12 0 -14 2 q-74 -22 -127 -22q-149 0 -254 104.5t-105 253.5zM195 1180q0 6 6 12l217 219q6 6 12 6q8 0 14 -6l218 -219q6 -6 6 -14q0 -7 -6 -13l-54 -53q-6 -6 -14 -6t-12 4l-152 154l-149 -154q-4 -4 -15 -4q-6 0 -12 6l-53 55q-6 6 -6 13zM317 338q0 -43 31 -74t74 -31t73.5 31 t30.5 74v108h-104q-42 0 -73.5 -32.5t-31.5 -75.5z" />
<glyph unicode="&#xe3;" horiz-adv-x="831" d="M61 338q0 148 104.5 248t254.5 100h104q0 42 -31 73.5t-73 31.5q-34 0 -60.5 -17.5t-45.5 -35t-33 -17.5q-17 0 -31 14l-115 117q-21 21 -10 41q41 74 121.5 112.5t173.5 38.5q149 0 253.5 -104.5t104.5 -253.5v-348v-299q0 -39 -41 -39h-176q-12 0 -14 2 q-74 -22 -127 -22q-149 0 -254 104.5t-105 253.5zM176 1268l19 26q30 43 63 59.5t82 16.5q48 0 102 -33l39 -24q17 -10 29 -10q27 0 43 22l18 27q4 7 14 7.5t17 -5.5l70 -47q13 -10 4 -29l-19 -25q-54 -75 -147 -75q-56 0 -102 30l-37 25q-17 10 -33 10q-25 0 -39 -20 l-18 -27q-7 -10 -17 -10q-5 0 -14 6l-70 47q-14 12 -4 29zM315 338q0 -43 31 -74t74 -31t73.5 31t30.5 74v108h-104q-42 0 -73.5 -32.5t-31.5 -75.5z" />
<glyph unicode="&#xe4;" horiz-adv-x="847" d="M66 338q0 148 104 248t254 100h104q0 42 -31 73.5t-73 31.5q-34 0 -60.5 -17.5t-45.5 -35t-33 -17.5q-17 0 -31 14l-115 117q-21 21 -10 41q41 74 121.5 112.5t173.5 38.5q149 0 253.5 -104.5t104.5 -253.5v-348v-299q0 -39 -41 -39h-176q-12 0 -14 2q-74 -22 -127 -22 q-149 0 -253.5 104.5t-104.5 253.5zM154 1223v155q0 39 39 39h161q15 0 27 -10.5t12 -28.5v-155q0 -18 -11 -31.5t-28 -13.5h-161q-39 0 -39 45zM319 338q0 -43 31 -74t74 -31t73.5 31t30.5 74v108h-104q-42 0 -73.5 -32.5t-31.5 -75.5zM520 1223v155q0 39 41 39h160 q39 0 39 -39v-155q0 -18 -10.5 -31.5t-28.5 -13.5h-160q-41 0 -41 45z" />
<glyph unicode="&#xe5;" horiz-adv-x="837" d="M59 338q0 148 104.5 248t254.5 100h104q0 42 -31 73.5t-73 31.5q-34 0 -60.5 -17.5t-45.5 -35t-33 -17.5q-17 0 -31 14l-115 117q-21 21 -10 41q41 74 121.5 112.5t173.5 38.5q149 0 253.5 -104.5t104.5 -253.5v-348v-299q0 -39 -41 -39h-176q-12 0 -14 2 q-74 -22 -127 -22q-149 0 -254 104.5t-105 253.5zM227 1333q0 82 56.5 139.5t138.5 57.5t139 -57.5t57 -139.5t-57 -138t-139 -56t-138.5 56t-56.5 138zM313 338q0 -43 31 -74t74 -31t73.5 31t30.5 74v108h-104q-42 0 -73.5 -32.5t-31.5 -75.5zM326 1333q0 -41 27.5 -68.5 t68.5 -27.5t69.5 27.5t28.5 68.5t-28.5 70t-69.5 29t-68.5 -28.5t-27.5 -70.5z" />
<glyph unicode="&#xe6;" horiz-adv-x="1308" d="M63 338q0 148 104.5 248t254.5 100h104q0 42 -31 73.5t-73 31.5q-34 0 -60.5 -17.5t-45.5 -35t-33 -17.5q-17 0 -31 14l-115 117q-21 21 -10 41q41 74 121.5 112.5t173.5 38.5q149 0 253.5 -104.5t104.5 -253.5v-348v-299q0 -39 -41 -39h-176q-12 0 -14 2 q-74 -22 -127 -22q-149 0 -254 104.5t-105 253.5zM317 338q0 -43 31 -74t74 -31t73.5 31t30.5 74v108h-104q-42 0 -73.5 -32.5t-31.5 -75.5zM526 338v348q0 149 105 253.5t254 104.5t253.5 -104.5t104.5 -253.5v-194q0 -22 -11.5 -34t-29.5 -12h-422v-108q0 -43 31 -74 t74 -31q39 0 62.5 13t31.5 31.5t13 36.5t14.5 31t27.5 13h164q19 0 32 -11.5t13 -33.5q0 -130 -105.5 -231.5t-252.5 -101.5q-149 0 -254 104.5t-105 253.5zM780 672h209q0 125 -104 125q-46 0 -75 -30t-30 -95z" />
<glyph unicode="&#xe7;" horiz-adv-x="851" d="M68 338v348q0 149 104.5 253.5t253.5 104.5q145 0 251.5 -102.5t106.5 -226.5q0 -19 -10.5 -31t-28.5 -12h-170q-15 0 -24.5 9t-13 22t-10.5 28.5t-16 28.5t-31 22t-54 9q-43 0 -73.5 -31t-30.5 -74v-348q0 -43 30.5 -74t73.5 -31q38 0 61.5 13t32 31.5t13.5 36.5 t14.5 31t27.5 13h164q19 0 32 -11.5t13 -33.5q0 -132 -105.5 -232.5t-252.5 -100.5q-149 0 -253.5 104.5t-104.5 253.5zM354 -49q0 26 19 45h143q-20 -14 -20 -33q0 -16 20 -32t48 -33t56 -37t48 -51.5t20 -69.5q0 -68 -58.5 -118.5t-195.5 -92.5h-4q-24 0 -40.5 34 t-16.5 58q0 14 10 21q160 41 160 98q0 22 -19.5 42t-47.5 36.5t-55.5 34t-47 43t-19.5 55.5z" />
<glyph unicode="&#xe8;" horiz-adv-x="847" d="M66 338v348q0 149 104.5 253.5t253.5 104.5t253.5 -104.5t104.5 -253.5v-194q0 -22 -11.5 -34t-29.5 -12h-422v-108q0 -43 31 -74t74 -31q39 0 62.5 13t31.5 31.5t13 36.5t14.5 31t27.5 13h164q19 0 32 -11.5t13 -33.5q0 -130 -105.5 -231.5t-252.5 -101.5 q-149 0 -253.5 104.5t-104.5 253.5zM176 1403q0 18 27 18h131q43 0 61 -41l115 -237q6 -12 6 -21q0 -20 -33 -20h-131q-22 0 -33.5 9.5t-21.5 31.5l-115 237q-6 12 -6 23zM319 672h209q0 125 -104 125q-46 0 -75 -30t-30 -95z" />
<glyph unicode="&#xe9;" d="M70 338v348q0 149 104.5 253.5t253.5 104.5t253.5 -104.5t104.5 -253.5v-194q0 -22 -11.5 -34t-29.5 -12h-421v-108q0 -43 30.5 -74t73.5 -31q48 0 73 19.5t29.5 43t15 43t32.5 19.5h163q19 0 32 -11.5t13 -33.5q0 -130 -105.5 -231.5t-252.5 -101.5q-149 0 -253.5 104.5 t-104.5 253.5zM324 672h208q0 125 -104 125q-101 0 -104 -125zM338 1122q0 9 6 21l115 237q18 41 61 41h131q27 0 27 -18q0 -11 -6 -23l-115 -237q-10 -22 -21.5 -31.5t-33.5 -9.5h-131q-33 0 -33 20z" />
<glyph unicode="&#xea;" horiz-adv-x="866" d="M74 338v348q0 149 104.5 253.5t253.5 104.5t254 -104.5t105 -253.5v-194q0 -22 -11.5 -34t-29.5 -12h-422v-108q0 -43 30.5 -74t73.5 -31q48 0 73 19.5t29.5 43t15 43t32.5 19.5h163q19 0 32.5 -11.5t13.5 -33.5q0 -130 -106 -231.5t-253 -101.5q-149 0 -253.5 104.5 t-104.5 253.5zM178 1180q0 6 6 12l217 219q6 6 13 6q8 0 14 -6l217 -219q6 -6 6 -14q0 -7 -6 -13l-53 -53q-6 -6 -14 -6q-9 0 -13 4l-151 154l-150 -154q-4 -4 -14 -4q-6 0 -12 6l-54 55q-6 6 -6 13zM328 672h209q0 125 -105 125q-101 0 -104 -125z" />
<glyph unicode="&#xeb;" horiz-adv-x="851" d="M68 338v348q0 149 104.5 253.5t253.5 104.5t253.5 -104.5t104.5 -253.5v-194q0 -22 -11.5 -34t-29.5 -12h-421v-108q0 -43 30.5 -74t73.5 -31q39 0 62.5 13t31.5 31.5t13 36.5t14.5 31t27.5 13h164q19 0 32 -11.5t13 -33.5q0 -130 -105.5 -231.5t-252.5 -101.5 q-149 0 -253.5 104.5t-104.5 253.5zM139 1223v155q0 39 39 39h162q15 0 27 -10.5t12 -28.5v-155q0 -18 -11 -31.5t-28 -13.5h-162q-39 0 -39 45zM322 672h208q0 125 -104 125q-101 0 -104 -125zM506 1223v155q0 39 41 39h160q38 0 38 -39v-155q0 -18 -10 -31.5t-28 -13.5 h-160q-41 0 -41 45z" />
<glyph unicode="&#xec;" horiz-adv-x="417" d="M-25 1403q0 18 27 18h131q44 0 62 -41l114 -237q6 -12 6 -21q0 -20 -32 -20h-131q-22 0 -34 9.5t-22 31.5l-114 237q-7 14 -7 23zM92 41v942q0 18 10.5 29.5t30.5 11.5h168q15 0 30 -12t15 -29v-942q0 -41 -45 -41h-168q-41 0 -41 41z" />
<glyph unicode="&#xed;" horiz-adv-x="399" d="M70 41v942q0 18 10.5 29.5t30.5 11.5h168q15 0 30 -12t15 -29v-942q0 -41 -45 -41h-168q-41 0 -41 41zM106 1122q0 7 7 21l114 237q18 41 62 41h131q26 0 26 -18q0 -11 -6 -23l-114 -237q-10 -22 -22 -31.5t-34 -9.5h-131q-33 0 -33 20z" />
<glyph unicode="&#xee;" horiz-adv-x="425" d="M-23 1176q0 5 7 12l217 219q6 6 12 6q8 0 14 -6l217 -219q7 -7 7 -14q0 -6 -7 -13l-53 -53q-6 -6 -14 -6t-12 4l-152 154l-150 -154q-4 -4 -14 -4q-6 0 -12 6l-53 55q-7 7 -7 13zM84 41v942q0 18 10.5 29.5t30.5 11.5h168q15 0 30 -12t15 -29v-942q0 -41 -45 -41h-168 q-41 0 -41 41z" />
<glyph unicode="&#xef;" horiz-adv-x="450" d="M-70 1223v155q0 39 39 39h162q15 0 27 -10.5t12 -28.5v-155q0 -18 -11 -31.5t-28 -13.5h-162q-39 0 -39 45zM98 41v942q0 18 10.5 29.5t30.5 11.5h168q15 0 30 -12t15 -29v-942q0 -41 -45 -41h-168q-41 0 -41 41zM297 1223v155q0 39 41 39h160q39 0 39 -39v-155 q0 -18 -10.5 -31.5t-28.5 -13.5h-160q-41 0 -41 45z" />
<glyph unicode="&#xf1;" horiz-adv-x="876" d="M80 41v942q0 18 10.5 29.5t30.5 11.5h168l18 -4q70 24 131 24q149 0 254 -104.5t105 -253.5v-645q0 -17 -13 -29t-30 -12h-170q-18 0 -29.5 10.5t-11.5 30.5v645q0 42 -31.5 73.5t-73.5 31.5q-41 0 -72.5 -31t-31.5 -72v-647q0 -41 -43 -41h-170q-41 0 -41 41zM168 1268 l18 26q30 43 63.5 59.5t82.5 16.5q48 0 102 -33l39 -24q17 -10 29 -10q27 0 43 22l18 27q4 7 14 7.5t17 -5.5l70 -47q13 -10 4 -29l-19 -25q-54 -75 -147 -75q-56 0 -103 30l-37 25q-17 10 -32 10q-25 0 -39 -20l-19 -27q-7 -10 -16 -10q-5 0 -14 6l-70 47q-14 12 -4 29z " />
<glyph unicode="&#xf2;" horiz-adv-x="872" d="M78 338v348q0 149 104.5 253.5t253.5 104.5t254 -104.5t105 -253.5v-348q0 -149 -105 -253.5t-254 -104.5t-253.5 104.5t-104.5 253.5zM188 1403q0 18 27 18h131q44 0 62 -41l114 -237q6 -12 6 -21q0 -20 -32 -20h-131q-22 0 -34 9.5t-22 31.5l-114 237q-7 14 -7 23z M332 338q0 -43 30.5 -74t73.5 -31t74 31t31 74v348q0 43 -31 74t-74 31t-73.5 -31t-30.5 -74v-348z" />
<glyph unicode="&#xf3;" horiz-adv-x="866" d="M74 338v348q0 149 104.5 253.5t253.5 104.5t254 -104.5t105 -253.5v-348q0 -149 -105 -253.5t-254 -104.5t-253.5 104.5t-104.5 253.5zM328 338q0 -43 30.5 -74t73.5 -31t74 31t31 74v348q0 43 -31 74t-74 31t-73.5 -31t-30.5 -74v-348zM332 1122q0 9 6 21l115 237 q18 41 61 41h131q27 0 27 -18q0 -11 -6 -23l-115 -237q-10 -22 -21.5 -31.5t-33.5 -9.5h-131q-33 0 -33 20z" />
<glyph unicode="&#xf4;" horiz-adv-x="862" d="M72 338v348q0 149 104.5 253.5t253.5 104.5t253.5 -104.5t104.5 -253.5v-348q0 -149 -104.5 -253.5t-253.5 -104.5t-253.5 104.5t-104.5 253.5zM193 1180q0 6 6 12l217 219q6 6 12 6q8 0 14 -6l217 -219q7 -7 7 -14q0 -6 -7 -13l-53 -53q-6 -6 -14 -6t-12 4l-152 154 l-149 -154q-4 -4 -15 -4q-6 0 -12 6l-53 55q-6 6 -6 13zM326 338q0 -43 30.5 -74t73.5 -31t74 31t31 74v348q0 43 -31 74t-74 31t-73.5 -31t-30.5 -74v-348z" />
<glyph unicode="&#xf5;" horiz-adv-x="876" d="M80 338v348q0 149 104.5 253.5t253.5 104.5t254 -104.5t105 -253.5v-348q0 -149 -105 -253.5t-254 -104.5t-253.5 104.5t-104.5 253.5zM190 1268l19 26q30 43 63 59.5t82 16.5t103 -33l39 -24q17 -10 28 -10q27 0 43 22l19 27q4 7 13.5 7.5t16.5 -5.5l70 -47 q13 -10 4 -29l-18 -25q-54 -75 -148 -75q-56 0 -102 30l-37 25q-17 10 -33 10q-25 0 -39 -20l-18 -27q-7 -10 -16 -10q-6 0 -15 6l-69 47q-15 12 -5 29zM334 338q0 -43 30.5 -74t73.5 -31t74 31t31 74v348q0 43 -31 74t-74 31t-73.5 -31t-30.5 -74v-348z" />
<glyph unicode="&#xf6;" d="M70 338v348q0 149 104.5 253.5t253.5 104.5t253.5 -104.5t104.5 -253.5v-348q0 -149 -104.5 -253.5t-253.5 -104.5t-253.5 104.5t-104.5 253.5zM127 1223v155q0 39 39 39h162q15 0 27 -10.5t12 -28.5v-155q0 -18 -11 -31.5t-28 -13.5h-162q-39 0 -39 45zM324 338 q0 -43 30.5 -74t73.5 -31t73.5 31t30.5 74v348q0 43 -30.5 74t-73.5 31t-73.5 -31t-30.5 -74v-348zM494 1223v155q0 39 41 39h159q39 0 39 -39v-155q0 -18 -10.5 -31.5t-28.5 -13.5h-159q-41 0 -41 45z" />
<glyph unicode="&#xf7;" horiz-adv-x="841" d="M66 432v168q0 41 40 41h635q18 0 29.5 -10.5t11.5 -30.5v-168q0 -15 -12 -30t-29 -15h-635q-40 0 -40 45zM297 106v168q0 41 41 41h172q18 0 29.5 -10.5t11.5 -30.5v-168q0 -15 -12 -30t-29 -15h-172q-41 0 -41 45zM297 754v168q0 41 41 41h172q18 0 29.5 -10.5 t11.5 -30.5v-168q0 -15 -12 -30t-29 -15h-172q-41 0 -41 45z" />
<glyph unicode="&#xf8;" horiz-adv-x="847" d="M66 338v348q0 149 104.5 253.5t253.5 104.5t253.5 -104.5t104.5 -253.5v-348q0 -149 -104.5 -253.5t-253.5 -104.5t-253.5 104.5t-104.5 253.5zM82 27q0 -6 2 1l2 13l588 1300q18 41 60 41h176q20 0 33.5 -7.5t13.5 -20.5q0 -11 -2 -13l-588 -1300q-11 -24 -20.5 -32.5 t-28.5 -8.5h-197q-39 0 -39 27zM319 338q0 -43 31 -74t74 -31t73.5 31t30.5 74v348q0 43 -30.5 74t-73.5 31t-74 -31t-31 -74v-348z" />
<glyph unicode="&#xf9;" horiz-adv-x="876" d="M80 338v645q0 18 11.5 29.5t31.5 11.5h168q18 0 30.5 -11t12.5 -30v-645q0 -43 30.5 -74t73.5 -31t74 31t31 74v645q0 41 45 41h170q39 0 39 -41v-942q0 -41 -45 -41h-168q-17 0 -19 2q-74 -22 -127 -22q-149 0 -253.5 104.5t-104.5 253.5zM197 1403q0 18 26 18h131 q44 0 62 -41l114 -237q7 -14 7 -21q0 -20 -33 -20h-131q-22 0 -34 9.5t-22 31.5l-114 237q-6 12 -6 23z" />
<glyph unicode="&#xfa;" horiz-adv-x="882" d="M82 338v645q0 18 11.5 29.5t31.5 11.5h168q18 0 30.5 -11t12.5 -30v-645q0 -43 30.5 -74t73.5 -31t74 31t31 74v645q0 41 45 41h170q39 0 39 -41v-942q0 -41 -45 -41h-168q-17 0 -19 2q-74 -22 -127 -22q-149 0 -253.5 104.5t-104.5 253.5zM356 1122q0 9 6 21l115 237 q18 41 62 41h131q26 0 26 -18q0 -11 -6 -23l-115 -237q-10 -22 -21.5 -31.5t-33.5 -9.5h-131q-33 0 -33 20z" />
<glyph unicode="&#xfb;" horiz-adv-x="897" d="M90 338v645q0 18 11.5 29.5t31.5 11.5h168q18 0 30.5 -11t12.5 -30v-645q0 -43 31 -74t74 -31t73.5 31t30.5 74v645q0 41 45 41h170q39 0 39 -41v-942q0 -41 -45 -41h-168q-17 0 -19 2q-74 -22 -126 -22q-149 0 -254 104.5t-105 253.5zM221 1180q0 6 6 12l217 219 q6 6 13 6q8 0 14 -6l217 -219q6 -6 6 -14q0 -7 -6 -13l-53 -53q-6 -6 -14 -6q-9 0 -13 4l-151 154l-150 -154q-4 -4 -14 -4q-6 0 -12 6l-54 55q-6 6 -6 13z" />
<glyph unicode="&#xfc;" horiz-adv-x="872" d="M78 338v645q0 18 11.5 29.5t31.5 11.5h168q18 0 30.5 -11t12.5 -30v-645q0 -43 30.5 -74t73.5 -31t74 31t31 74v645q0 41 45 41h170q39 0 39 -41v-942q0 -41 -45 -41h-168q-17 0 -19 2q-74 -22 -127 -22q-149 0 -253.5 104.5t-104.5 253.5zM143 1223v155q0 39 39 39h162 q15 0 27 -10.5t12 -28.5v-155q0 -18 -11 -31.5t-28 -13.5h-162q-39 0 -39 45zM510 1223v155q0 39 41 39h160q39 0 39 -39v-155q0 -18 -10.5 -31.5t-28.5 -13.5h-160q-41 0 -41 45z" />
<glyph unicode="&#xfd;" horiz-adv-x="841" d="M66 338v645q0 18 11.5 29.5t31.5 11.5h167q18 0 30.5 -11t12.5 -30v-645q0 -43 31 -74t74 -31q41 0 70 27.5t34 69.5v657q0 15 9.5 26t27.5 11h178q18 0 28.5 -11t10.5 -26v-1007q0 -149 -104.5 -254t-253.5 -105q-89 0 -167.5 40t-127.5 112q-9 19 10 41l115 116 q16 13 31 13q14 0 33 -17t45.5 -34t60.5 -17q43 0 73.5 31t30.5 74v16q-66 -16 -104 -16q-149 0 -253.5 104.5t-104.5 253.5zM330 1122q0 9 6 21l115 237q18 41 61 41h131q27 0 27 -18q0 -11 -6 -23l-115 -237q-10 -22 -21.5 -31.5t-33.5 -9.5h-132q-32 0 -32 20z" />
<glyph unicode="&#xff;" horiz-adv-x="847" d="M70 338v645q0 18 11.5 29.5t31.5 11.5h168q18 0 30.5 -11t12.5 -30v-645q0 -43 30.5 -74t73.5 -31q41 0 70 27.5t34 69.5v657q0 15 9.5 26t27.5 11h179q18 0 28 -11t10 -26v-1007q0 -149 -104.5 -254t-253.5 -105q-89 0 -167.5 40t-127.5 112q-9 19 10 41l115 116 q16 13 31 13q14 0 33 -17t45.5 -34t60.5 -17q43 0 73.5 31t30.5 74v16q-66 -16 -104 -16q-149 0 -253.5 104.5t-104.5 253.5zM129 1223v155q0 39 39 39h162q15 0 27 -10.5t12 -28.5v-155q0 -18 -11 -31.5t-28 -13.5h-162q-39 0 -39 45zM496 1223v155q0 39 41 39h159 q39 0 39 -39v-155q0 -18 -10.5 -31.5t-28.5 -13.5h-159q-41 0 -41 45z" />
<glyph unicode="&#x152;" horiz-adv-x="1337" d="M78 338v706q0 149 104.5 254t253.5 105t254 -105t105 -254v-706q0 -149 -105 -253.5t-254 -104.5t-253.5 104.5t-104.5 253.5zM332 338q0 -43 30.5 -74t73.5 -31t74 31t31 74v706q0 43 -31 74t-74 31t-73.5 -31t-30.5 -74v-706zM541 39v1298q0 45 41 45h635q40 0 40 -47 v-164q0 -18 -12.5 -30.5t-30.5 -12.5h-419v-309h366q41 0 41 -43v-168q0 -43 -41 -43h-366v-311h419q43 0 43 -45v-170q0 -39 -40 -39h-635q-41 0 -41 39z" />
<glyph unicode="&#x153;" horiz-adv-x="1308" d="M66 338v348q0 149 104.5 253.5t253.5 104.5t253.5 -104.5t104.5 -253.5v-348q0 -149 -104.5 -253.5t-253.5 -104.5t-253.5 104.5t-104.5 253.5zM319 338q0 -43 31 -74t74 -31t73.5 31t30.5 74v348q0 43 -30.5 74t-73.5 31t-74 -31t-31 -74v-348zM526 338v348 q0 149 105 253.5t254 104.5t253.5 -104.5t104.5 -253.5v-194q0 -22 -11.5 -34t-29.5 -12h-422v-108q0 -43 31 -74t74 -31q39 0 62.5 13t31.5 31.5t13 36.5t14.5 31t27.5 13h164q19 0 32 -11.5t13 -33.5q0 -130 -105.5 -231.5t-252.5 -101.5q-149 0 -254 104.5t-105 253.5z M780 672h209q0 125 -104 125q-46 0 -75 -30t-30 -95z" />
<glyph unicode="&#x178;" horiz-adv-x="862" d="M41 1346q-5 14 5.5 25t27.5 11h194q24 0 33 -20l131 -416l137 416q5 20 25 20h197q16 0 24 -13t6 -28q0 -1 -7 -20q-72 -193 -251 -686v-588q0 -47 -41 -47h-178q-17 0 -27 13t-10 34v588q-266 709 -266 711zM164 1624v156q0 39 39 39h162q15 0 26.5 -10.5t11.5 -28.5 v-156q0 -18 -10.5 -31.5t-27.5 -13.5h-162q-39 0 -39 45zM530 1624v156q0 39 41 39h160q39 0 39 -39v-156q0 -18 -10.5 -31.5t-28.5 -13.5h-160q-41 0 -41 45z" />
<glyph unicode="&#x2c6;" horiz-adv-x="546" d="M37 1180q0 6 6 12l217 219q6 6 12 6q9 0 15 -6l217 -219q6 -6 6 -14q0 -7 -6 -13l-53 -53q-6 -6 -15 -6q-8 0 -12 4l-152 154l-149 -154q-4 -4 -14 -4q-7 0 -13 6l-53 55q-6 6 -6 13z" />
<glyph unicode="&#x2dc;" horiz-adv-x="630" d="M66 1212l18 27q30 43 63 59.5t82 16.5t103 -33l39 -25q17 -10 28 -10q27 0 43 23l19 26q4 7 14 7.5t17 -5.5l69 -47q13 -10 4 -28l-18 -25q-55 -76 -148 -76q-54 0 -102 31l-37 25q-17 10 -33 10q-24 0 -39 -21l-18 -26q-7 -11 -16 -11q-4 0 -15 7l-69 47q-14 11 -4 28z " />
<glyph unicode="&#x2000;" horiz-adv-x="1024" />
<glyph unicode="&#x2001;" horiz-adv-x="2048" />
<glyph unicode="&#x2002;" horiz-adv-x="1024" />
<glyph unicode="&#x2003;" horiz-adv-x="2048" />
<glyph unicode="&#x2004;" horiz-adv-x="682" />
<glyph unicode="&#x2005;" horiz-adv-x="512" />
<glyph unicode="&#x2006;" horiz-adv-x="341" />
<glyph unicode="&#x2007;" horiz-adv-x="341" />
<glyph unicode="&#x2008;" horiz-adv-x="256" />
<glyph unicode="&#x2009;" horiz-adv-x="409" />
<glyph unicode="&#x200a;" horiz-adv-x="113" />
<glyph unicode="&#x2010;" horiz-adv-x="880" d="M82 432v168q0 41 41 41h635q18 0 29.5 -10.5t11.5 -30.5v-168q0 -15 -12 -30t-29 -15h-635q-41 0 -41 45z" />
<glyph unicode="&#x2011;" horiz-adv-x="880" d="M82 432v168q0 41 41 41h635q18 0 29.5 -10.5t11.5 -30.5v-168q0 -15 -12 -30t-29 -15h-635q-41 0 -41 45z" />
<glyph unicode="&#x2012;" horiz-adv-x="880" d="M82 432v168q0 41 41 41h635q18 0 29.5 -10.5t11.5 -30.5v-168q0 -15 -12 -30t-29 -15h-635q-41 0 -41 45z" />
<glyph unicode="&#x2013;" horiz-adv-x="1103" d="M82 471v164q0 41 41 41h858q18 0 29.5 -10.5t11.5 -30.5v-164q0 -15 -12 -30t-29 -15h-858q-41 0 -41 45z" />
<glyph unicode="&#x2014;" horiz-adv-x="1411" d="M82 471v164q0 41 41 41h1165q18 0 29.5 -10.5t11.5 -30.5v-164q0 -15 -12 -30t-29 -15h-1165q-41 0 -41 45z" />
<glyph unicode="&#x2018;" horiz-adv-x="339" d="M57 932v172q0 170 152 270q20 5 27 2t20 -16q23 -23 23 -39q0 -9 -17.5 -31t-35 -55.5t-17.5 -69.5v-41q0 -20 20 -20h7q34 -3 34 -41v-131q0 -41 -41 -41h-131q-18 0 -29.5 10.5t-11.5 30.5z" />
<glyph unicode="&#x2019;" horiz-adv-x="342" d="M61 956q0 8 17.5 30.5t35 56.5t17.5 69v41q0 21 -20 21h-7q-34 3 -34 40v132q0 40 41 40h131q18 0 29.5 -10.5t11.5 -29.5v-172q0 -171 -152 -271q-20 -5 -27 -1.5t-20 16.5q-23 23 -23 38z" />
<glyph unicode="&#x201a;" horiz-adv-x="339" d="M59 -217q0 8 17.5 30.5t35 56.5t17.5 69v41q0 20 -20 20h-7q-34 3 -34 41v131q0 41 41 41h131q18 0 29.5 -10.5t11.5 -30.5v-172q0 -170 -152 -270q-20 -5 -27 -2t-20 16q-23 23 -23 39z" />
<glyph unicode="&#x201c;" horiz-adv-x="604" d="M68 932v172q0 171 151 270q20 5 27 2t20 -16q23 -23 23 -39q0 -9 -17.5 -31t-35 -55.5t-17.5 -69.5v-41q0 -20 21 -20h6q35 -3 35 -41v-131q0 -41 -41 -41h-131q-18 0 -29.5 10.5t-11.5 30.5zM313 932v172q0 170 152 270q20 5 27 2t20 -16q23 -23 23 -39q0 -9 -17.5 -31 t-35 -55.5t-17.5 -69.5v-41q0 -20 20 -20h7q34 -3 34 -41v-131q0 -41 -41 -41h-131q-18 0 -29.5 10.5t-11.5 30.5z" />
<glyph unicode="&#x201d;" horiz-adv-x="602" d="M68 954q0 8 17 30.5t34.5 56.5t17.5 69v41q0 20 -20 20h-6q-35 3 -35 41v131q0 41 41 41h131q18 0 29.5 -10.5t11.5 -30.5v-172q0 -170 -152 -270q-20 -5 -27 -2t-20 16q-22 22 -22 39zM313 954q0 8 17.5 30.5t35 56.5t17.5 69v41q0 20 -21 20h-6q-34 3 -34 41v131 q0 41 40 41h132q18 0 29.5 -10.5t11.5 -30.5v-172q0 -170 -152 -270q-20 -5 -27 -2t-20 16q-23 23 -23 39z" />
<glyph unicode="&#x201e;" horiz-adv-x="602" d="M68 -217q0 8 17 30.5t34.5 56.5t17.5 69v41q0 20 -20 20h-6q-35 3 -35 41v131q0 41 41 41h131q18 0 29.5 -10.5t11.5 -30.5v-172q0 -170 -152 -270q-20 -5 -27 -2t-20 16q-22 22 -22 39zM313 -217q0 8 17.5 30.5t35 56.5t17.5 69v41q0 20 -21 20h-6q-34 3 -34 41v131 q0 41 40 41h132q18 0 29.5 -10.5t11.5 -30.5v-172q0 -170 -152 -270q-20 -5 -27 -2t-20 16q-23 23 -23 39z" />
<glyph unicode="&#x2022;" horiz-adv-x="323" d="M57 481q0 43 31 74t74 31t73.5 -31t30.5 -74t-30.5 -73.5t-73.5 -30.5t-74 30.5t-31 73.5z" />
<glyph unicode="&#x2026;" horiz-adv-x="1003" d="M82 45v168q0 41 41 41h172q18 0 29.5 -10.5t11.5 -30.5v-168q0 -15 -12 -30t-29 -15h-172q-41 0 -41 45zM375 45v168q0 41 41 41h172q18 0 29.5 -10.5t11.5 -30.5v-168q0 -15 -12 -30t-29 -15h-172q-41 0 -41 45zM668 45v168q0 41 41 41h172q18 0 29.5 -10.5t11.5 -30.5 v-168q0 -15 -12 -30t-29 -15h-172q-41 0 -41 45z" />
<glyph unicode="&#x202f;" horiz-adv-x="409" />
<glyph unicode="&#x2039;" horiz-adv-x="737" d="M39 512q0 15 14 29l488 487q10 10 28 10q19 0 31 -12l86 -88q12 -12 12 -29q0 -18 -10 -28l-366 -369l366 -367q10 -10 10 -28q0 -19 -14 -33l-88 -88q-12 -12 -27 -12q-16 0 -28 12l-488 489q-14 14 -14 27z" />
<glyph unicode="&#x203a;" horiz-adv-x="737" d="M39 117q0 18 10 28l367 367l-367 369q-10 10 -10 28q0 17 12 29l86 88q12 12 31 12t29 -10l487 -487q14 -14 14 -29q0 -13 -14 -27l-487 -489q-12 -12 -29 -12q-15 0 -27 12l-88 88q-14 14 -14 33z" />
<glyph unicode="&#x205f;" horiz-adv-x="512" />
<glyph unicode="&#x20ac;" horiz-adv-x="909" d="M55 510v102q0 41 41 41h39v80h-39q-41 0 -41 45v103q0 41 41 41h39v122q0 149 105 254t254 105t253.5 -105t104.5 -254q0 -19 -10.5 -31t-28.5 -12h-170q-18 0 -29.5 15t-18.5 37t-16.5 44t-30.5 37t-54 15q-43 0 -74 -31t-31 -74v-122h381q18 0 29.5 -10.5t11.5 -30.5 v-103q0 -15 -12 -30t-29 -15h-381v-80h381q18 0 29.5 -10.5t11.5 -30.5v-102q0 -15 -12 -30t-29 -15h-381v-127q0 -43 31 -74t74 -31q33 0 54 15.5t30.5 38t16.5 45t18.5 38t29.5 15.5h164q19 0 32 -11.5t13 -33.5q0 -152 -104 -256t-254 -104q-149 0 -254 104.5t-105 253.5 v127h-39q-41 0 -41 45z" />
<glyph unicode="&#x2122;" horiz-adv-x="933" d="M72 1298v66q0 18 20 18h252q18 0 21 -18v-66q0 -20 -21 -20h-74v-440q0 -6 -5.5 -12.5t-12.5 -6.5h-68q-5 0 -11.5 6.5t-6.5 12.5v440h-74q-20 0 -20 20zM379 836v407q0 61 42.5 104.5t102.5 43.5q53 0 94 -35q41 35 95 35q63 0 105 -43t42 -105v-407q0 -17 -16 -17h-70 q-16 0 -16 17v407q0 17 -13 30t-32 13q-17 0 -29 -12t-12 -31v-407q0 -17 -17 -17h-69q-17 0 -17 17v407q0 18 -13.5 30.5t-31.5 12.5q-17 0 -29 -12t-12 -31v-407q0 -17 -18 -17h-68q-18 0 -18 17z" />
<glyph unicode="&#xe000;" horiz-adv-x="1024" d="M0 0v1024h1024v-1024h-1024z" />
<glyph unicode="&#xfb01;" horiz-adv-x="890" d="M63 838v145q0 41 41 41h86v20q0 149 105 254t254 105h16q41 0 41 -41v-166q0 -20 -12 -33.5t-29 -13.5h-16q-43 0 -74 -31t-31 -74v-20h121q41 0 41 -41v-145q0 -45 -41 -45h-121v-752q0 -19 -12.5 -30t-30.5 -11h-168q-20 0 -31.5 11.5t-11.5 29.5v752h-86q-41 0 -41 45 zM270 791v233h453v-233h-453zM573 41q0 -41 45 -41h168q41 0 41 41v942q0 18 -10.5 29.5t-30.5 11.5h-168q-15 0 -30 -12t-15 -29v-942zM573 1174q0 -15 12 -30.5t29 -15.5h172q41 0 41 46v167q0 41 -41 41h-172q-18 0 -29.5 -10.5t-11.5 -30.5v-167z" />
<glyph unicode="&#xfb02;" horiz-adv-x="1091" d="M53 838v145q0 41 41 41h86v20q0 149 105 254t254 105h16q41 0 41 -41v-166q0 -20 -12 -33.5t-29 -13.5h-16q-43 0 -74 -31t-31 -74v-20h121q41 0 41 -41v-145q0 -45 -41 -45h-121v-752q0 -19 -12.5 -30t-30.5 -11h-168q-20 0 -31.5 11.5t-11.5 29.5v752h-86q-41 0 -41 45 zM543 1149v254h241v-254h-241zM623 338v1024q0 18 11.5 29.5t31.5 11.5h168q18 0 30.5 -11t12.5 -30v-1024q0 -43 30.5 -74t73.5 -31h16q17 0 29 -13.5t12 -33.5v-166q0 -40 -41 -40h-16q-149 0 -253.5 104.5t-104.5 253.5z" />
<glyph unicode="&#xfb03;" horiz-adv-x="1374" d="M78 838v145q0 41 41 41h86v20q0 149 104.5 254t253.5 105h17q41 0 41 -41v-166q0 -20 -12 -33.5t-29 -13.5h-17q-43 0 -73.5 -31t-30.5 -74v-20h121q41 0 41 -41v-145q0 -45 -41 -45h-121v-752q0 -19 -12.5 -30t-30.5 -11h-168q-20 0 -31.5 11.5t-11.5 29.5v752h-86 q-41 0 -41 45zM528 838v145q0 41 41 41h86v20q0 149 105 254t254 105h16q41 0 41 -41v-166q0 -20 -12 -33.5t-29 -13.5h-16q-43 0 -74 -31t-31 -74v-20h121q41 0 41 -41v-145q0 -45 -41 -45h-121v-752q0 -19 -12.5 -30t-30.5 -11h-168q-20 0 -31.5 11.5t-11.5 29.5v752h-86 q-41 0 -41 45zM776 791v233h453v-233h-453zM1042 41q0 -41 45 -41h168q41 0 41 41v942q0 18 -10.5 29.5t-30.5 11.5h-168q-15 0 -30 -12t-15 -29v-942zM1042 1174q0 -15 12 -30.5t29 -15.5h172q41 0 41 46v167q0 41 -41 41h-172q-18 0 -29.5 -10.5t-11.5 -30.5v-167z" />
<glyph unicode="&#xfb04;" horiz-adv-x="1554" d="M61 838v145q0 41 41 41h86v20q0 149 105 254t254 105h16q41 0 41 -41v-166q0 -20 -12 -33.5t-29 -13.5h-16q-43 0 -74 -31t-31 -74v-20h121q41 0 41 -41v-145q0 -45 -41 -45h-121v-752q0 -19 -12.5 -30t-30.5 -11h-168q-20 0 -31.5 11.5t-11.5 29.5v752h-86q-41 0 -41 45 zM512 838v145q0 41 41 41h86v20q0 149 104.5 254t253.5 105h17q41 0 41 -41v-166q0 -20 -12 -33.5t-29 -13.5h-17q-43 0 -73.5 -31t-30.5 -74v-20h121q41 0 41 -41v-145q0 -45 -41 -45h-121v-752q0 -19 -12.5 -30t-30.5 -11h-168q-20 0 -31.5 11.5t-11.5 29.5v752h-86 q-41 0 -41 45zM764 793v231h453v-231h-453zM1075 338v1003q0 18 11.5 29.5t31.5 11.5h168q18 0 30.5 -11t12.5 -30v-1003q0 -43 31 -74t74 -31h16q17 0 29 -13.5t12 -33.5v-166q0 -40 -41 -40h-16q-149 0 -254 104.5t-105 253.5z" />
</font>
</defs>
</svg>
