<?xml version="1.0" encoding="utf-8"?>
<!-- Generator: Adobe Illustrator 16.0.4, SVG Export Plug-In . SVG Version: 6.00 Build 0)  -->
<!DOCTYPE svg PUBLIC "-//W3C//DTD SVG 1.1//EN" "http://www.w3.org/Graphics/SVG/1.1/DTD/svg11.dtd">
<svg version="1.1" id="Layer_1" xmlns="http://www.w3.org/2000/svg" xmlns:xlink="http://www.w3.org/1999/xlink" x="0px" y="0px"
	 width="323px" height="323px" viewBox="0 0 323 323" enable-background="new 0 0 323 323" xml:space="preserve">
<g enable-background="new    ">
	<path fill="#FFFFFF" d="M66.661,156.195c-2.88-3.33-4.23-6.57-4.23-11.16c0-8.729,6.84-15.749,15.569-15.749
		c8.73,0,15.57,7.02,15.57,15.749v2.61c0,1.17-0.99,1.979-1.98,1.979H84.3c-0.99,0-1.89-0.72-1.89-1.89c0-4.05-0.45-7.29-4.41-7.29
		c-2.52,0-4.41,2.07-4.41,4.59c0,1.53,0.45,2.61,1.44,3.69l13.859,16.109c3.78,4.409,4.86,6.749,4.86,11.249
		c0,8.28-6.84,15.84-15.75,15.84c-8.729,0-15.749-7.2-15.749-15.84v-2.88c0-1.35,1.17-1.89,1.89-1.89h7.38
		c3.6,0-0.36,9.359,6.479,9.359c2.52,0,4.59-1.979,4.59-4.59c0-1.17-0.9-2.52-2.07-3.869L66.661,156.195z"/>
</g>
<g enable-background="new    ">
	<path fill="#FFFFFF" d="M230.845,132.166c0-1.35,0.63-1.979,1.979-1.979h13.77c8.73,0,15.75,6.119,15.75,15.749v29.249
		c0,8.729-7.02,15.749-15.75,15.749h-13.77c-0.81,0-1.979-0.09-1.979-1.62V132.166z M242.004,141.346v38.429h4.59
		c2.52,0,4.59-2.07,4.59-4.59v-29.249c0-2.52-2.07-4.59-4.59-4.59H242.004z"/>
</g>
<circle fill="none" stroke="#FFFFFF" stroke-width="5" stroke-miterlimit="10" cx="162.5" cy="162" r="145.5"/>
<g>
	
		<line fill="none" stroke="#FFFFFF" stroke-width="5" stroke-linecap="round" stroke-miterlimit="10" x1="70.666" y1="69.666" x2="254.334" y2="253.334"/>
	
		<line fill="none" stroke="#FFFFFF" stroke-width="5" stroke-linecap="round" stroke-miterlimit="10" x1="254.334" y1="69.666" x2="70.666" y2="253.334"/>
</g>
<g enable-background="new    ">
	<path fill="#FFFFFF" d="M156.633,70.306v37.443c0,1.944-1.584,3.456-3.457,3.456h-3.384V66.921h3.384
		C155.049,66.921,156.633,68.506,156.633,70.306z M155.121,70.306c0-1.08-0.864-1.944-1.944-1.944h-1.944v41.403h1.944
		c1.08,0,1.944-0.864,1.944-2.016V70.306z"/>
	<path fill="#FFFFFF" d="M159.944,66.921h5.4v1.44h-3.959v29.162h3.672v1.368h-3.672v10.873h3.959v1.44h-5.4V98.892h-1.368v-1.368
		h1.368V66.921z"/>
	<path fill="#FFFFFF" d="M174.992,70.378v40.827h-1.512V70.378c0-1.152-0.864-2.017-1.944-2.017h-1.944v42.844h-1.439V66.993h3.384
		C173.408,66.993,174.992,68.506,174.992,70.378z"/>
</g>
<g enable-background="new    ">
	<path fill="#FFFFFF" d="M160.525,214.708v8.065h-1.512v-8.065c0-1.151-0.864-2.016-1.872-2.016c-1.152,0-2.016,0.864-2.016,2.016
		v37.804c0,1.08,0.864,2.017,2.016,2.017c1.008,0,1.872-0.937,1.872-2.017v-9.073h1.512v9.073c0,1.944-1.584,3.456-3.384,3.456
		c-1.944,0-3.457-1.512-3.457-3.456v-37.804c0-1.872,1.512-3.456,3.457-3.456C158.941,211.252,160.525,212.836,160.525,214.708z"/>
	<path fill="#FFFFFF" d="M170.389,214.708v37.804c0,1.944-1.584,3.456-3.385,3.456c-1.871,0-3.456-1.512-3.456-3.456v-37.804
		c0-1.872,1.585-3.456,3.456-3.456C168.805,211.252,170.389,212.836,170.389,214.708z M168.877,214.708
		c0-1.151-0.793-2.016-1.873-2.016c-1.152,0-2.016,0.864-2.016,2.016v37.804c0,1.08,0.863,2.017,2.016,2.017
		c1.08,0,1.873-0.937,1.873-2.017V214.708z"/>
</g>
<circle fill="none" stroke="#FFFFFF" stroke-width="3" stroke-miterlimit="10" cx="162.359" cy="162" r="155"/>
<g>
	<circle fill="none" stroke="#FFFFFF" stroke-miterlimit="10" stroke-dasharray="3.9865,3.9865" cx="162.359" cy="162" r="151"/>
</g>
</svg>
